<svg width="2120" height="140" viewBox="0 0 2120 140" fill="none" xmlns="http://www.w3.org/2000/svg">
<circle cx="950" cy="10" r="10" fill="white"/>
<circle cx="890" cy="10" r="10" fill="white"/>
<circle cx="970" cy="30" r="10" fill="white"/>
<circle cx="910" cy="30" r="10" fill="white"/>
<circle cx="990" cy="50" r="10" fill="white"/>
<circle cx="930" cy="50" r="10" fill="white"/>
<circle cx="1010" cy="70" r="10" fill="white"/>
<circle cx="950" cy="70" r="10" fill="white"/>
<circle cx="990" cy="90" r="10" fill="white"/>
<circle cx="930" cy="90" r="10" fill="white"/>
<circle cx="970" cy="110" r="10" fill="white"/>
<circle cx="910" cy="110" r="10" fill="white"/>
<circle cx="950" cy="130" r="10" fill="white"/>
<circle cx="890" cy="130" r="10" fill="white"/>
<circle cx="2050" cy="10" r="10" fill="white"/>
<circle cx="1990" cy="10" r="10" fill="white"/>
<circle cx="2070" cy="30" r="10" fill="white"/>
<circle cx="2010" cy="30" r="10" fill="white"/>
<circle cx="2090" cy="50" r="10" fill="white"/>
<circle cx="2030" cy="50" r="10" fill="white"/>
<circle cx="2110" cy="70" r="10" fill="white"/>
<circle cx="2050" cy="70" r="10" fill="white"/>
<circle cx="2090" cy="90" r="10" fill="white"/>
<circle cx="2030" cy="90" r="10" fill="white"/>
<circle cx="2070" cy="110" r="10" fill="white"/>
<circle cx="2010" cy="110" r="10" fill="white"/>
<circle cx="2050" cy="130" r="10" fill="white"/>
<circle cx="1990" cy="130" r="10" fill="white"/>
<circle cx="730" cy="10" r="10" fill="white"/>
<circle cx="670" cy="10" r="10" fill="white"/>
<circle cx="750" cy="30" r="10" fill="white"/>
<circle cx="690" cy="30" r="10" fill="white"/>
<circle cx="770" cy="50" r="10" fill="white"/>
<circle cx="710" cy="50" r="10" fill="white"/>
<circle cx="790" cy="70" r="10" fill="white"/>
<circle cx="730" cy="70" r="10" fill="white"/>
<circle cx="770" cy="90" r="10" fill="white"/>
<circle cx="710" cy="90" r="10" fill="white"/>
<circle cx="750" cy="110" r="10" fill="white"/>
<circle cx="690" cy="110" r="10" fill="white"/>
<circle cx="730" cy="130" r="10" fill="white"/>
<circle cx="670" cy="130" r="10" fill="white"/>
<circle cx="1830" cy="10" r="10" fill="white"/>
<circle cx="1770" cy="10" r="10" fill="white"/>
<circle cx="1850" cy="30" r="10" fill="white"/>
<circle cx="1790" cy="30" r="10" fill="white"/>
<circle cx="1870" cy="50" r="10" fill="white"/>
<circle cx="1810" cy="50" r="10" fill="white"/>
<circle cx="1890" cy="70" r="10" fill="white"/>
<circle cx="1830" cy="70" r="10" fill="white"/>
<circle cx="1870" cy="90" r="10" fill="white"/>
<circle cx="1810" cy="90" r="10" fill="white"/>
<circle cx="1850" cy="110" r="10" fill="white"/>
<circle cx="1790" cy="110" r="10" fill="white"/>
<circle cx="1830" cy="130" r="10" fill="white"/>
<circle cx="1770" cy="130" r="10" fill="white"/>
<circle cx="510" cy="10" r="10" fill="white"/>
<circle cx="450" cy="10" r="10" fill="white"/>
<circle cx="530" cy="30" r="10" fill="white"/>
<circle cx="470" cy="30" r="10" fill="white"/>
<circle cx="550" cy="50" r="10" fill="white"/>
<circle cx="490" cy="50" r="10" fill="white"/>
<circle cx="570" cy="70" r="10" fill="white"/>
<circle cx="510" cy="70" r="10" fill="white"/>
<circle cx="550" cy="90" r="10" fill="white"/>
<circle cx="490" cy="90" r="10" fill="white"/>
<circle cx="530" cy="110" r="10" fill="white"/>
<circle cx="470" cy="110" r="10" fill="white"/>
<circle cx="510" cy="130" r="10" fill="white"/>
<circle cx="450" cy="130" r="10" fill="white"/>
<circle cx="1610" cy="10" r="10" fill="white"/>
<circle cx="1550" cy="10" r="10" fill="white"/>
<circle cx="1630" cy="30" r="10" fill="white"/>
<circle cx="1570" cy="30" r="10" fill="white"/>
<circle cx="1650" cy="50" r="10" fill="white"/>
<circle cx="1590" cy="50" r="10" fill="white"/>
<circle cx="1670" cy="70" r="10" fill="white"/>
<circle cx="1610" cy="70" r="10" fill="white"/>
<circle cx="1650" cy="90" r="10" fill="white"/>
<circle cx="1590" cy="90" r="10" fill="white"/>
<circle cx="1630" cy="110" r="10" fill="white"/>
<circle cx="1570" cy="110" r="10" fill="white"/>
<circle cx="1610" cy="130" r="10" fill="white"/>
<circle cx="1550" cy="130" r="10" fill="white"/>
<circle cx="290" cy="10" r="10" fill="white"/>
<circle cx="230" cy="10" r="10" fill="white"/>
<circle cx="310" cy="30" r="10" fill="white"/>
<circle cx="250" cy="30" r="10" fill="white"/>
<circle cx="330" cy="50" r="10" fill="white"/>
<circle cx="270" cy="50" r="10" fill="white"/>
<circle cx="350" cy="70" r="10" fill="white"/>
<circle cx="290" cy="70" r="10" fill="white"/>
<circle cx="330" cy="90" r="10" fill="white"/>
<circle cx="270" cy="90" r="10" fill="white"/>
<circle cx="310" cy="110" r="10" fill="white"/>
<circle cx="250" cy="110" r="10" fill="white"/>
<circle cx="290" cy="130" r="10" fill="white"/>
<circle cx="230" cy="130" r="10" fill="white"/>
<circle cx="1390" cy="10" r="10" fill="white"/>
<circle cx="1330" cy="10" r="10" fill="white"/>
<circle cx="1410" cy="30" r="10" fill="white"/>
<circle cx="1350" cy="30" r="10" fill="white"/>
<circle cx="1430" cy="50" r="10" fill="white"/>
<circle cx="1370" cy="50" r="10" fill="white"/>
<circle cx="1450" cy="70" r="10" fill="white"/>
<circle cx="1390" cy="70" r="10" fill="white"/>
<circle cx="1430" cy="90" r="10" fill="white"/>
<circle cx="1370" cy="90" r="10" fill="white"/>
<circle cx="1410" cy="110" r="10" fill="white"/>
<circle cx="1350" cy="110" r="10" fill="white"/>
<circle cx="1390" cy="130" r="10" fill="white"/>
<circle cx="1330" cy="130" r="10" fill="white"/>
<circle cx="70" cy="10" r="10" fill="white"/>
<circle cx="10" cy="10" r="10" fill="white"/>
<circle cx="90" cy="30" r="10" fill="white"/>
<circle cx="30" cy="30" r="10" fill="white"/>
<circle cx="110" cy="50" r="10" fill="white"/>
<circle cx="50" cy="50" r="10" fill="white"/>
<circle cx="130" cy="70" r="10" fill="white"/>
<circle cx="70" cy="70" r="10" fill="white"/>
<circle cx="110" cy="90" r="10" fill="white"/>
<circle cx="50" cy="90" r="10" fill="white"/>
<circle cx="90" cy="110" r="10" fill="white"/>
<circle cx="30" cy="110" r="10" fill="white"/>
<circle cx="70" cy="130" r="10" fill="white"/>
<circle cx="10" cy="130" r="10" fill="white"/>
<circle cx="1170" cy="10" r="10" fill="white"/>
<circle cx="1110" cy="10" r="10" fill="white"/>
<circle cx="1190" cy="30" r="10" fill="white"/>
<circle cx="1130" cy="30" r="10" fill="white"/>
<circle cx="1210" cy="50" r="10" fill="white"/>
<circle cx="1150" cy="50" r="10" fill="white"/>
<circle cx="1230" cy="70" r="10" fill="white"/>
<circle cx="1170" cy="70" r="10" fill="white"/>
<circle cx="1210" cy="90" r="10" fill="white"/>
<circle cx="1150" cy="90" r="10" fill="white"/>
<circle cx="1190" cy="110" r="10" fill="white"/>
<circle cx="1130" cy="110" r="10" fill="white"/>
<circle cx="1170" cy="130" r="10" fill="white"/>
<circle cx="1110" cy="130" r="10" fill="white"/>
</svg>
