<svg width="355" height="284" viewBox="0 0 355 284" fill="none" xmlns="http://www.w3.org/2000/svg">
<circle cx="35.5" cy="35.5" r="35.5" fill="#4F0BEF"/>
<circle cx="106.5" cy="35.5" r="35.5" fill="#4F0BEF"/>
<circle cx="177.5" cy="35.5" r="35.5" fill="#4F0BEF"/>
<circle cx="248.5" cy="35.5" r="35.5" fill="#4F0BEF"/>
<circle cx="319.5" cy="35.5" r="35.5" fill="#4F0BEF"/>
<circle cx="35.5" cy="106.5" r="35.5" fill="#4F0BEF"/>
<circle cx="106.5" cy="106.5" r="35.5" fill="#4F0BEF"/>
<circle cx="177.5" cy="106.5" r="35.5" fill="#4F0BEF"/>
<circle cx="248.5" cy="106.5" r="35.5" fill="#4F0BEF"/>
<circle cx="319.5" cy="106.5" r="35.5" fill="#4F0BEF"/>
<circle cx="35.5" cy="177.5" r="35.5" fill="#4F0BEF"/>
<circle cx="106.5" cy="177.5" r="35.5" fill="#4F0BEF"/>
<circle cx="177.5" cy="177.5" r="35.5" fill="#4F0BEF"/>
<circle cx="248.5" cy="177.5" r="35.5" fill="#4F0BEF"/>
<circle cx="319.5" cy="177.5" r="35.5" fill="#4F0BEF"/>
<circle cx="35.5" cy="248.5" r="35.5" fill="#4F0BEF"/>
<circle cx="106.5" cy="248.5" r="35.5" fill="#4F0BEF"/>
<circle cx="177.5" cy="248.5" r="35.5" fill="#4F0BEF"/>
<circle cx="248.5" cy="248.5" r="35.5" fill="#4F0BEF"/>
<circle cx="319.5" cy="248.5" r="35.5" fill="#4F0BEF"/>
</svg>
