<svg width="710" height="284" viewBox="0 0 710 284" fill="none" xmlns="http://www.w3.org/2000/svg">
<circle cx="35.5" cy="35.5" r="35.5" fill="#EF340B"/>
<circle cx="106.5" cy="106.5" r="35.5" fill="#EF340B"/>
<circle cx="106.5" cy="35.5" r="35.5" fill="#4F0BEF"/>
<circle cx="35.5" cy="106.5" r="35.5" fill="#EF0B85"/>
<circle cx="35.5" cy="177.5" r="35.5" fill="#EF340B"/>
<circle cx="106.5" cy="248.5" r="35.5" fill="#EF340B"/>
<circle cx="106.5" cy="177.5" r="35.5" fill="#4F0BEF"/>
<circle cx="35.5" cy="248.5" r="35.5" fill="#EF0B85"/>
<circle cx="177.5" cy="35.5" r="35.5" fill="#EF340B"/>
<circle cx="248.5" cy="106.5" r="35.5" fill="#EF340B"/>
<circle cx="248.5" cy="35.5" r="35.5" fill="#4F0BEF"/>
<circle cx="177.5" cy="106.5" r="35.5" fill="#EF0B85"/>
<circle cx="177.5" cy="177.5" r="35.5" fill="#EF340B"/>
<circle cx="248.5" cy="248.5" r="35.5" fill="#EF340B"/>
<circle cx="248.5" cy="177.5" r="35.5" fill="#4F0BEF"/>
<circle cx="177.5" cy="248.5" r="35.5" fill="#EF0B85"/>
<circle cx="319.5" cy="35.5" r="35.5" fill="#EF340B"/>
<circle cx="390.5" cy="106.5" r="35.5" fill="#EF340B"/>
<circle cx="390.5" cy="35.5" r="35.5" fill="#4F0BEF"/>
<circle cx="319.5" cy="106.5" r="35.5" fill="#EF0B85"/>
<circle cx="319.5" cy="177.5" r="35.5" fill="#EF340B"/>
<circle cx="390.5" cy="248.5" r="35.5" fill="#EF340B"/>
<circle cx="390.5" cy="177.5" r="35.5" fill="#4F0BEF"/>
<circle cx="319.5" cy="248.5" r="35.5" fill="#EF0B85"/>
<circle cx="461.5" cy="35.5" r="35.5" fill="#EF340B"/>
<circle cx="532.5" cy="106.5" r="35.5" fill="#EF340B"/>
<circle cx="532.5" cy="35.5" r="35.5" fill="#4F0BEF"/>
<circle cx="461.5" cy="106.5" r="35.5" fill="#EF0B85"/>
<circle cx="461.5" cy="177.5" r="35.5" fill="#EF340B"/>
<circle cx="532.5" cy="248.5" r="35.5" fill="#EF340B"/>
<circle cx="532.5" cy="177.5" r="35.5" fill="#4F0BEF"/>
<circle cx="461.5" cy="248.5" r="35.5" fill="#EF0B85"/>
<circle cx="603.5" cy="35.5" r="35.5" fill="#EF340B"/>
<circle cx="674.5" cy="106.5" r="35.5" fill="#EF340B"/>
<circle cx="674.5" cy="35.5" r="35.5" fill="#4F0BEF"/>
<circle cx="603.5" cy="106.5" r="35.5" fill="#EF0B85"/>
<circle cx="603.5" cy="177.5" r="35.5" fill="#EF340B"/>
<circle cx="674.5" cy="248.5" r="35.5" fill="#EF340B"/>
<circle cx="674.5" cy="177.5" r="35.5" fill="#4F0BEF"/>
<circle cx="603.5" cy="248.5" r="35.5" fill="#EF0B85"/>
</svg>
