<svg width="330" height="139" viewBox="0 0 330 139" fill="none" xmlns="http://www.w3.org/2000/svg">
<g clip-path="url(#clip0_135_3975)">
<rect y="-1" width="330" height="140" fill="#222222"/>
<path d="M330.164 139H238.748C238.88 132.126 240.07 126.044 242.317 120.756C244.564 115.468 247.539 110.709 251.24 106.479C254.942 102.248 259.106 98.4145 263.733 94.9773C268.36 91.4079 273.12 88.0368 278.011 84.864C282.902 81.559 287.728 78.254 292.487 74.949C297.378 71.5118 301.741 67.8763 305.575 64.0425C309.409 60.2087 312.251 56.3088 314.102 52.3428C316.085 48.2446 317.076 43.4192 317.076 37.8668C317.076 33.372 316.217 29.406 314.498 25.9688C312.912 22.3994 310.664 19.4249 307.756 17.0453C304.98 14.5335 301.675 12.6827 297.841 11.4929C294.139 10.1709 290.173 9.50991 285.943 9.50991C280.258 9.50991 275.367 10.5675 271.269 12.6827C267.303 14.7979 264.064 17.6402 261.552 21.2096C259.04 24.779 257.189 28.8772 256 33.5042C254.942 38.1313 254.479 43.0227 254.612 48.1785H242.119C241.986 41.0397 242.78 34.4957 244.498 28.5467C246.349 22.4655 249.125 17.2436 252.827 12.881C256.528 8.51841 261.155 5.14731 266.708 2.7677C272.392 0.2559 279.003 -1 286.538 -1C292.619 -1 298.238 -0.140699 303.393 1.5779C308.681 3.1643 313.242 5.61 317.076 8.91501C321.042 12.0878 324.083 16.1199 326.198 21.0113C328.445 25.9027 329.569 31.5873 329.569 38.0651C329.569 43.882 328.578 49.17 326.595 53.9292C324.744 58.6884 322.166 63.051 318.861 67.017C315.688 70.983 311.986 74.6846 307.756 78.1218C303.658 81.4268 299.295 84.5335 294.668 87.4419C291.363 89.6893 287.463 92.2011 282.968 94.9773C278.474 97.6213 274.111 100.596 269.881 103.901C265.782 107.206 262.147 110.841 258.974 114.807C255.801 118.641 253.818 122.872 253.025 127.499H330.164V139Z" fill="white"/>
<path d="M172.384 26.9603C177.804 26.8281 182.695 26.5637 187.058 26.1671C191.553 25.6383 195.386 24.5146 198.559 22.796C201.864 21.0774 204.574 18.4995 206.689 15.0623C208.937 11.4929 210.523 6.53541 211.449 0.189796H221.562V139H209.069V35.8838H172.384V26.9603Z" fill="white"/>
<path d="M162.921 139V117.98H179.578V139H162.921Z" fill="white"/>
<path d="M129.225 93.9858V18.4334H128.829L76.4774 93.9858H129.225ZM65.1743 92.3994L129.424 0.189789H140.727V93.9858H161.548V104.496H140.727V139H129.225V104.496H65.1743V92.3994Z" fill="white"/>
<path d="M0 26.9603C5.42021 26.8281 10.3116 26.5637 14.6742 26.1671C19.169 25.6383 23.0028 24.5146 26.1756 22.796C29.4806 21.0774 32.1907 18.4995 34.3059 15.0623C36.5533 11.4929 38.1397 6.5354 39.0651 0.189789H49.1785V139H36.6855V35.8838H0V26.9603Z" fill="white"/>
</g>
<defs>
<clipPath id="clip0_135_3975">
<rect width="330" height="139" fill="white"/>
</clipPath>
</defs>
</svg>
