<svg width="660" height="396" viewBox="0 0 660 396" fill="none" xmlns="http://www.w3.org/2000/svg">
<circle cx="33" cy="33" r="33" fill="#222222"/>
<circle cx="99" cy="33" r="33" fill="#222222"/>
<circle cx="165" cy="33" r="33" fill="#222222"/>
<circle cx="231" cy="33" r="33" fill="#222222"/>
<circle cx="297" cy="33" r="33" fill="#222222"/>
<circle cx="33" cy="99" r="33" fill="#222222"/>
<circle cx="33" cy="165" r="33" fill="#222222"/>
<circle cx="99" cy="165" r="33" fill="#222222"/>
<circle cx="165" cy="165" r="33" fill="#222222"/>
<circle cx="33" cy="231" r="33" fill="#222222"/>
<circle cx="33" cy="297" r="33" fill="#222222"/>
<circle cx="33" cy="363" r="33" fill="#222222"/>
<circle cx="429" cy="33" r="33" fill="#222222"/>
<circle cx="495" cy="33" r="33" fill="#222222"/>
<circle cx="561" cy="33" r="33" fill="#222222"/>
<circle cx="627" cy="99" r="33" fill="#222222"/>
<circle cx="363" cy="99" r="33" fill="#222222"/>
<circle cx="363" cy="165" r="33" fill="#222222"/>
<circle cx="429" cy="165" r="33" fill="#222222"/>
<circle cx="495" cy="165" r="33" fill="#222222"/>
<circle cx="363" cy="231" r="33" fill="#222222"/>
<circle cx="363" cy="297" r="33" fill="#222222"/>
<circle cx="363" cy="363" r="33" fill="#222222"/>
</svg>
