<svg width="534" height="140" viewBox="0 0 534 140" fill="none" xmlns="http://www.w3.org/2000/svg">
<g clip-path="url(#clip0_160_4351)">
<rect width="534" height="140" fill="#222222"/>
<path d="M408.998 70.1621C408.998 59.9898 410.498 50.4696 413.498 41.6015C416.497 32.6029 420.801 24.8433 426.409 18.3226C432.147 11.6715 439.124 6.45499 447.34 2.673C455.687 -1.109 465.076 -3 475.509 -3C483.725 -3 490.833 -1.89148 496.832 0.325545C502.831 2.41217 507.852 5.08565 511.895 8.34599C516.068 11.4759 519.459 14.9319 522.067 18.7139C524.675 22.4959 526.632 26.0823 527.936 29.473C529.37 32.7334 530.348 35.6025 530.87 38.0803C531.392 40.4278 531.653 41.7319 531.653 41.9927H523.045C522.132 36.1241 520.241 30.9076 517.372 26.3431C514.503 21.6482 510.917 17.6706 506.613 14.4102C502.309 11.1499 497.484 8.67202 492.137 6.97665C486.921 5.28127 481.378 4.43358 475.509 4.43358C466.38 4.43358 458.23 6.19417 451.057 9.71534C443.884 13.2365 437.82 17.9966 432.864 23.9956C427.908 29.8643 424.126 36.7762 421.518 44.7314C418.91 52.6867 417.606 61.1636 417.606 70.1621C417.606 79.1607 418.91 87.6375 421.518 95.5928C424.126 103.548 427.908 110.525 432.864 116.524C437.82 122.393 443.884 127.088 451.057 130.609C458.23 134.13 466.38 135.891 475.509 135.891C482.291 135.891 488.616 134.521 494.485 131.783C500.484 128.914 505.7 125.197 510.134 120.632C514.568 115.937 518.09 110.59 520.698 104.591C523.436 98.4619 525.001 92.1368 525.393 85.6161H534C533.217 93.9626 531.131 101.657 527.74 108.699C524.48 115.742 520.241 121.871 515.025 127.088C509.939 132.174 504.005 136.151 497.223 139.021C490.442 141.89 483.204 143.324 475.509 143.324C465.076 143.324 455.687 141.433 447.34 137.651C439.124 133.869 432.147 128.718 426.409 122.197C420.801 115.546 416.497 107.786 413.498 98.9183C410.498 89.9198 408.998 80.3344 408.998 70.1621Z" fill="white"/>
<path d="M295.54 0.324928H341.315C353.835 0.324928 364.203 2.28114 372.419 6.19355C380.766 10.106 387.417 15.3225 392.372 21.8432C397.328 28.3639 400.784 35.7975 402.74 44.144C404.827 52.4904 405.87 61.0977 405.87 69.9659C405.87 79.8773 404.566 89.1367 401.958 97.744C399.48 106.221 395.568 113.589 390.221 119.849C384.874 126.109 378.092 131.065 369.876 134.716C361.79 138.237 352.14 139.998 340.924 139.998H295.54V0.324928ZM341.707 132.564C348.227 132.564 354.748 131.586 361.269 129.63C367.92 127.544 373.919 124.153 379.266 119.458C384.613 114.633 388.917 108.242 392.177 100.287C395.568 92.2014 397.263 82.0943 397.263 69.9659C397.263 60.4457 396.285 52.2948 394.329 45.5133C392.503 38.7318 390.025 33.0588 386.895 28.4943C383.896 23.7994 380.374 20.1478 376.332 17.5395C372.419 14.8009 368.311 12.7142 364.007 11.2797C359.834 9.84513 355.596 8.93224 351.292 8.54099C347.119 8.01934 343.337 7.75851 339.946 7.75851H304.148V132.564H341.707Z" fill="white"/>
<path d="M273.824 -3H281.845L219.637 143.324H211.617L273.824 -3Z" fill="white"/>
<path d="M83.4656 70.1621C83.4656 59.9898 84.9653 50.4696 87.9648 41.6015C90.9644 32.6029 95.268 24.8433 100.876 18.3226C106.614 11.6715 113.591 6.45499 121.807 2.673C130.154 -1.109 139.543 -3 149.977 -3C158.193 -3 165.3 -1.89148 171.299 0.325545C177.298 2.41217 182.319 5.08565 186.362 8.34599C190.535 11.4759 193.926 14.9319 196.534 18.7139C199.143 22.4959 201.099 26.0823 202.403 29.473C203.837 32.7334 204.816 35.6025 205.337 38.0803C205.859 40.4278 206.12 41.7319 206.12 41.9927H197.512C196.599 36.1241 194.708 30.9076 191.839 26.3431C188.97 21.6482 185.384 17.6706 181.08 14.4102C176.777 11.1499 171.951 8.67202 166.604 6.97665C161.388 5.28127 155.845 4.43358 149.977 4.43358C140.848 4.43358 132.697 6.19417 125.524 9.71534C118.351 13.2365 112.287 17.9966 107.331 23.9956C102.376 29.8643 98.5936 36.7762 95.9853 44.7314C93.377 52.6867 92.0729 61.1636 92.0729 70.1621C92.0729 79.1607 93.377 87.6375 95.9853 95.5928C98.5936 103.548 102.376 110.525 107.331 116.524C112.287 122.393 118.351 127.088 125.524 130.609C132.697 134.13 140.848 135.891 149.977 135.891C156.758 135.891 163.083 134.521 168.952 131.783C174.951 128.914 180.167 125.197 184.601 120.632C189.035 115.937 192.557 110.59 195.165 104.591C197.904 98.4619 199.469 92.1368 199.86 85.6161H208.467C207.685 93.9626 205.598 101.657 202.207 108.699C198.947 115.742 194.708 121.871 189.492 127.088C184.406 132.174 178.472 136.151 171.69 139.021C164.909 141.89 157.671 143.324 149.977 143.324C139.543 143.324 130.154 141.433 121.807 137.651C113.591 133.869 106.614 128.718 100.876 122.197C95.268 115.546 90.9644 107.786 87.9648 98.9183C84.9653 89.9198 83.4656 80.3344 83.4656 70.1621Z" fill="white"/>
<path d="M0 0.324959H87.638V7.75854H8.60731V63.706H79.8132V71.1396H8.60731V139.998H0V0.324959Z" fill="white"/>
</g>
<defs>
<clipPath id="clip0_160_4351">
<rect width="534" height="140" fill="white"/>
</clipPath>
</defs>
</svg>
