<svg width="511" height="140" viewBox="0 0 511 140" fill="none" xmlns="http://www.w3.org/2000/svg">
<g clip-path="url(#clip0_160_4351)">
<rect width="511" height="140" fill="#222222"/>
<path d="M391.287 69.9939C391.287 60.2621 392.722 51.1542 395.592 42.6701C398.461 34.0612 402.578 26.6376 407.943 20.3993C413.433 14.0362 420.108 9.04555 427.968 5.42733C435.953 1.80911 444.937 0 454.918 0C462.778 0 469.578 1.06051 475.317 3.18154C481.056 5.1778 485.86 7.73551 489.728 10.8547C493.72 13.8491 496.964 17.1554 499.459 20.7736C501.955 24.3918 503.826 27.8229 505.074 31.0668C506.446 34.186 507.382 36.9308 507.881 39.3014C508.38 41.5472 508.63 42.7948 508.63 43.0444H500.395C499.522 37.4299 497.713 32.4392 494.968 28.0724C492.223 23.5808 488.792 19.7755 484.675 16.6563C480.557 13.5371 475.941 11.1666 470.826 9.54462C465.835 7.92266 460.532 7.11168 454.918 7.11168C446.184 7.11168 438.386 8.79603 431.524 12.1647C424.662 15.5334 418.86 20.0874 414.119 25.8266C409.378 31.4411 405.76 38.0537 403.265 45.6645C400.769 53.2752 399.522 61.385 399.522 69.9939C399.522 78.6028 400.769 86.7126 403.265 94.3233C405.76 101.934 409.378 108.609 414.119 114.348C418.86 119.963 424.662 124.454 431.524 127.823C438.386 131.192 446.184 132.876 454.918 132.876C461.406 132.876 467.457 131.566 473.071 128.946C478.811 126.201 483.801 122.645 488.043 118.278C492.285 113.787 495.654 108.671 498.149 102.932C500.77 97.0682 502.267 91.017 502.641 84.7787H510.876C510.127 92.7637 508.131 100.125 504.887 106.862C501.768 113.6 497.713 119.464 492.722 124.454C487.856 129.32 482.179 133.126 475.692 135.871C469.204 138.615 462.279 139.988 454.918 139.988C444.937 139.988 435.953 138.179 427.968 134.56C420.108 130.942 413.433 126.014 407.943 119.776C402.578 113.413 398.461 105.989 395.592 97.5049C392.722 88.896 391.287 79.7257 391.287 69.9939Z" fill="white"/>
<path d="M282.742 3.18095H326.535C338.513 3.18095 348.432 5.05244 356.292 8.79544C364.277 12.5384 370.64 17.5291 375.381 23.7674C380.122 30.0057 383.429 37.1174 385.3 45.1024C387.296 53.0875 388.294 61.322 388.294 69.8062C388.294 79.2884 387.047 88.1468 384.551 96.3814C382.181 104.491 378.438 111.54 373.323 117.529C368.207 123.518 361.719 128.259 353.859 131.753C346.123 135.121 336.891 136.806 326.161 136.806H282.742V3.18095ZM326.909 129.694C333.148 129.694 339.386 128.758 345.624 126.887C351.987 124.89 357.727 121.647 362.842 117.155C367.958 112.539 372.075 106.425 375.194 98.8143C378.438 91.0788 380.06 81.4094 380.06 69.8062C380.06 60.6982 379.124 52.9003 377.253 46.4125C375.506 39.9246 373.135 34.4973 370.141 30.1305C367.271 25.6389 363.903 22.1454 360.035 19.6501C356.292 17.03 352.362 15.0337 348.244 13.6613C344.252 12.2889 340.197 11.4155 336.08 11.0412C332.087 10.5422 328.469 10.2926 325.225 10.2926H290.977V129.694H326.909Z" fill="white"/>
<path d="M261.967 0H269.64L210.126 139.988H202.453L261.967 0Z" fill="white"/>
<path d="M79.8512 69.9939C79.8512 60.2621 81.286 51.1542 84.1556 42.6701C87.0253 34.0612 91.1425 26.6376 96.5075 20.3993C101.997 14.0362 108.672 9.04555 116.532 5.42733C124.518 1.80911 133.501 0 143.482 0C151.342 0 158.142 1.06051 163.881 3.18154C169.621 5.1778 174.424 7.73551 178.292 10.8547C182.284 13.8491 185.528 17.1554 188.024 20.7736C190.519 24.3918 192.39 27.8229 193.638 31.0668C195.01 34.186 195.946 36.9308 196.445 39.3014C196.944 41.5472 197.194 42.7948 197.194 43.0444H188.959C188.086 37.4299 186.277 32.4392 183.532 28.0724C180.787 23.5808 177.356 19.7755 173.239 16.6563C169.121 13.5371 164.505 11.1666 159.39 9.54462C154.399 7.92266 149.096 7.11168 143.482 7.11168C134.748 7.11168 126.95 8.79603 120.088 12.1647C113.226 15.5334 107.425 20.0874 102.683 25.8266C97.9423 31.4411 94.3241 38.0537 91.8288 45.6645C89.3334 53.2752 88.0858 61.385 88.0858 69.9939C88.0858 78.6028 89.3334 86.7126 91.8288 94.3233C94.3241 101.934 97.9423 108.609 102.683 114.348C107.425 119.963 113.226 124.454 120.088 127.823C126.95 131.192 134.748 132.876 143.482 132.876C149.97 132.876 156.021 131.566 161.636 128.946C167.375 126.201 172.365 122.645 176.607 118.278C180.85 113.787 184.218 108.671 186.714 102.932C189.334 97.0682 190.831 91.017 191.205 84.7787H199.44C198.691 92.7637 196.695 100.125 193.451 106.862C190.332 113.6 186.277 119.464 181.286 124.454C176.42 129.32 170.743 133.126 164.256 135.871C157.768 138.615 150.843 139.988 143.482 139.988C133.501 139.988 124.518 138.179 116.532 134.56C108.672 130.942 101.997 126.014 96.5075 119.776C91.1425 113.413 87.0253 105.989 84.1556 97.5049C81.286 88.896 79.8512 79.7257 79.8512 69.9939Z" fill="white"/>
<path d="M0 3.18098H83.843V10.2927H8.23458V63.8174H76.357V70.9291H8.23458V136.806H0V3.18098Z" fill="white"/>
</g>
<defs>
<clipPath id="clip0_160_4351">
<rect width="511" height="140" fill="white"/>
</clipPath>
</defs>
</svg>
