<svg width="684" height="225" viewBox="0 0 684 225" fill="none" xmlns="http://www.w3.org/2000/svg">
<path d="M670.774 50.1115H683.553V75.9188H670.774V50.1115ZM670.774 153.09H683.553V178.898H670.774V153.09Z" fill="white"/>
<path d="M554.088 79.6771H554.589C555.591 76.5034 557.261 72.9956 559.6 69.1537C561.939 65.3119 565.029 61.8041 568.871 58.6303C572.712 55.2896 577.306 52.5335 582.651 50.362C588.163 48.1905 594.427 47.1047 601.443 47.1047C611.298 47.1047 619.817 48.9422 627 52.617C634.349 56.2918 640.363 61.2194 645.04 67.3998C649.884 73.5802 653.475 80.7629 655.814 88.9477C658.152 97.1326 659.322 105.735 659.322 114.755C659.322 124.61 658.152 133.63 655.814 141.815C653.475 150 649.884 157.099 645.04 163.113C640.363 168.959 634.349 173.552 627 176.893C619.817 180.234 611.298 181.904 601.443 181.904C590.753 181.904 581.231 179.566 572.88 174.889C564.528 170.212 558.431 162.611 554.589 152.088H554.088V225H544.567V50.1114H554.088V79.6771ZM601.443 173.636C609.795 173.636 616.978 172.049 622.991 168.875C629.171 165.702 634.182 161.442 638.024 156.097C642.033 150.752 644.956 144.571 646.794 137.556C648.798 130.373 649.8 122.773 649.8 114.755C649.8 107.405 648.882 100.223 647.044 93.2072C645.207 86.0245 642.367 79.6771 638.525 74.1649C634.684 68.4856 629.672 63.9756 623.492 60.6348C617.479 57.127 610.129 55.3731 601.443 55.3731C592.924 55.3731 585.658 57.0435 579.645 60.3842C573.631 63.725 568.704 68.1515 564.862 73.6638C561.187 79.176 558.514 85.5234 556.844 92.7061C555.174 99.7216 554.338 107.071 554.338 114.755C554.338 122.439 555.09 129.872 556.593 137.055C558.097 144.07 560.602 150.334 564.11 155.846C567.785 161.192 572.629 165.535 578.642 168.875C584.823 172.049 592.423 173.636 601.443 173.636Z" fill="white"/>
<path d="M534.405 178.898H524.884V151.336H524.383C522.713 156.18 520.291 160.523 517.117 164.365C514.11 168.04 510.519 171.214 506.343 173.886C502.334 176.559 497.908 178.564 493.063 179.9C488.219 181.236 483.292 181.904 478.281 181.904C470.764 181.904 464.333 180.986 458.988 179.148C453.81 177.311 449.55 174.889 446.209 171.882C442.869 168.875 440.196 165.535 438.192 161.86C436.354 158.018 435.018 154.176 434.183 150.334C433.347 146.492 432.846 142.817 432.679 139.31C432.512 135.635 432.429 132.461 432.429 129.789V50.1115H441.95V131.542C441.95 134.883 442.2 138.976 442.702 143.82C443.203 148.497 444.622 153.09 446.961 157.6C449.467 161.943 453.141 165.702 457.985 168.875C462.83 172.049 469.678 173.636 478.531 173.636C485.714 173.636 492.145 172.3 497.824 169.627C503.67 166.954 508.598 163.28 512.607 158.603C516.616 153.758 519.622 148.079 521.627 141.565C523.798 134.883 524.884 127.617 524.884 119.766V50.1115H534.405V178.898Z" fill="white"/>
<path d="M373.644 105.985H427.263V115.507H373.644V105.985Z" fill="white"/>
<path d="M264.262 115.757V117.261C264.262 124.777 265.265 131.96 267.269 138.808C269.274 145.657 272.197 151.67 276.039 156.849C280.047 162.027 284.975 166.119 290.821 169.126C296.835 172.133 303.767 173.636 311.618 173.636C324.48 173.636 334.669 170.295 342.186 163.614C349.702 156.765 354.88 147.327 357.72 135.301H367.241C364.402 150.334 358.221 161.86 348.7 169.878C339.346 177.895 326.902 181.904 311.367 181.904C301.846 181.904 293.494 180.234 286.311 176.893C279.296 173.385 273.366 168.708 268.522 162.862C263.845 156.849 260.337 149.833 257.999 141.815C255.66 133.63 254.491 124.861 254.491 115.507C254.491 106.487 255.66 97.8842 257.999 89.6994C260.504 81.3475 264.179 74.0813 269.023 67.9009C273.867 61.5535 279.88 56.5424 287.063 52.8675C294.413 49.0257 303.015 47.1047 312.87 47.1047C321.89 47.1047 329.825 48.7751 336.673 52.1159C343.689 55.4566 349.535 60.0502 354.212 65.8965C358.889 71.5758 362.397 78.2573 364.736 85.941C367.241 93.4577 368.494 101.559 368.494 110.245C368.494 111.08 368.411 112.082 368.243 113.252C368.243 114.254 368.243 115.089 368.243 115.757H264.262ZM358.722 107.489C358.388 100.473 357.219 93.8753 355.215 87.6949C353.21 81.3475 350.203 75.8352 346.194 71.1582C342.353 66.3141 337.592 62.4722 331.913 59.6326C326.401 56.7929 320.053 55.3731 312.87 55.3731C305.187 55.3731 298.422 56.8764 292.575 59.8831C286.729 62.7228 281.801 66.5646 277.792 71.4087C273.784 76.0858 270.693 81.598 268.522 87.9455C266.35 94.2929 265.014 100.807 264.513 107.489H358.722Z" fill="white"/>
<path d="M140.599 50.1114H150.12V77.6727H150.621C152.292 72.8286 154.63 68.5691 157.637 64.8943C160.811 61.0524 164.402 57.7952 168.411 55.1226C172.587 52.4499 177.097 50.4455 181.941 49.1092C186.785 47.7729 191.713 47.1047 196.724 47.1047C204.24 47.1047 210.588 48.0234 215.766 49.8609C221.111 51.6983 225.454 54.1203 228.795 57.127C232.136 60.1337 234.725 63.558 236.562 67.3998C238.567 71.0747 239.986 74.833 240.822 78.6749C241.657 82.5168 242.158 86.2751 242.325 89.9499C242.492 93.4577 242.576 96.5479 242.576 99.2205V178.898H233.054V97.4666C233.054 94.2929 232.804 90.284 232.303 85.4399C231.802 80.5958 230.298 76.0023 227.793 71.6593C225.454 67.1493 221.779 63.3074 216.768 60.1337C211.924 56.96 205.159 55.3731 196.473 55.3731C189.123 55.3731 182.609 56.7094 176.93 59.382C171.25 62.0546 166.406 65.813 162.397 70.6571C158.389 75.3341 155.298 81.0134 153.127 87.6949C151.122 94.2094 150.12 101.392 150.12 109.243V178.898H140.599V50.1114Z" fill="white"/>
<path d="M120.791 25.8074V0H130.312V25.8074H120.791ZM120.791 178.898V50.1114H130.312V178.898H120.791Z" fill="white"/>
<path d="M0 1.52588e-05H11.0245V169.376H112.5V178.898H0V1.52588e-05Z" fill="white"/>
</svg>
