<svg width="1392" height="115" viewBox="0 0 1392 115" fill="none" xmlns="http://www.w3.org/2000/svg">
<rect width="1392" height="115" fill="#EF0B85"/>
<path d="M1285.67 32.4301H1291.59V48.8011H1291.9C1292.53 46.3065 1293.62 43.9678 1295.18 41.785C1296.74 39.4982 1298.61 37.5233 1300.79 35.8602C1303.08 34.1971 1305.57 32.8979 1308.27 31.9624C1311.08 31.0269 1313.99 30.5591 1317.01 30.5591C1320.85 30.5591 1324.18 31.0789 1326.98 32.1183C1329.79 33.0538 1332.18 34.3531 1334.16 36.0161C1336.13 37.5753 1337.69 39.3943 1338.83 41.4731C1339.98 43.448 1340.76 45.4749 1341.17 47.5538H1341.48C1343.87 41.9409 1347.04 37.7312 1350.99 34.9247C1355.05 32.0143 1360.35 30.5591 1366.9 30.5591C1370.54 30.5591 1373.86 31.1308 1376.88 32.2742C1379.99 33.3136 1382.64 34.9767 1384.83 37.2635C1387.11 39.4463 1388.88 42.2527 1390.13 45.6828C1391.38 49.1129 1392 53.1667 1392 57.8441V112.57H1386.08V57.6882C1386.08 52.595 1385.3 48.5932 1383.74 45.6828C1382.18 42.7724 1380.31 40.5896 1378.12 39.1344C1376.04 37.5753 1373.91 36.6398 1371.73 36.328C1369.65 35.9122 1368.04 35.7043 1366.9 35.7043C1363.26 35.7043 1359.88 36.328 1356.76 37.5753C1353.75 38.8226 1351.1 40.6936 1348.81 43.1882C1346.63 45.6828 1344.91 48.8011 1343.67 52.543C1342.42 56.181 1341.8 60.3907 1341.8 65.1721V112.57H1335.87V57.6882C1335.87 52.6989 1335.09 48.7491 1333.53 45.8387C1332.08 42.8244 1330.31 40.5896 1328.23 39.1344C1326.26 37.6792 1324.18 36.7437 1321.99 36.328C1319.92 35.9122 1318.25 35.7043 1317.01 35.7043C1314.2 35.7043 1311.29 36.276 1308.27 37.4194C1305.26 38.5627 1302.51 40.3298 1300.01 42.7204C1297.52 45.1111 1295.49 48.1774 1293.93 51.9194C1292.37 55.6613 1291.59 60.0789 1291.59 65.1721V112.57H1285.67V32.4301Z" fill="#222222"/>
<path d="M1205.82 72.5C1205.82 66.7832 1206.6 61.4301 1208.16 56.4409C1209.82 51.3477 1212.21 46.8781 1215.33 43.0323C1218.45 39.1864 1222.3 36.1721 1226.87 33.9893C1231.44 31.7025 1236.69 30.5591 1242.62 30.5591C1248.54 30.5591 1253.79 31.7025 1258.36 33.9893C1262.94 36.1721 1266.78 39.1864 1269.9 43.0323C1273.02 46.8781 1275.36 51.3477 1276.92 56.4409C1278.58 61.4301 1279.41 66.7832 1279.41 72.5C1279.41 78.2169 1278.58 83.6219 1276.92 88.7151C1275.36 93.8083 1273.02 98.2778 1269.9 102.124C1266.78 105.866 1262.94 108.88 1258.36 111.167C1253.79 113.349 1248.54 114.441 1242.62 114.441C1236.69 114.441 1231.44 113.349 1226.87 111.167C1222.3 108.88 1218.45 105.866 1215.33 102.124C1212.21 98.2778 1209.82 93.8083 1208.16 88.7151C1206.6 83.6219 1205.82 78.2169 1205.82 72.5ZM1211.75 72.5C1211.75 77.2814 1212.42 81.9068 1213.77 86.3764C1215.12 90.742 1217.1 94.6398 1219.7 98.0699C1222.3 101.5 1225.52 104.255 1229.36 106.333C1233.21 108.308 1237.63 109.296 1242.62 109.296C1247.61 109.296 1252.02 108.308 1255.87 106.333C1259.72 104.255 1262.94 101.5 1265.54 98.0699C1268.14 94.6398 1270.11 90.742 1271.46 86.3764C1272.81 81.9068 1273.49 77.2814 1273.49 72.5C1273.49 67.7187 1272.81 63.1452 1271.46 58.7796C1270.11 54.3101 1268.14 50.3602 1265.54 46.9301C1262.94 43.5 1259.72 40.7975 1255.87 38.8226C1252.02 36.7437 1247.61 35.7043 1242.62 35.7043C1237.63 35.7043 1233.21 36.7437 1229.36 38.8226C1225.52 40.7975 1222.3 43.5 1219.7 46.9301C1217.1 50.3602 1215.12 54.3101 1213.77 58.7796C1212.42 63.1452 1211.75 67.7187 1211.75 72.5Z" fill="#222222"/>
<path d="M1196.85 57.2204C1196.54 53.6864 1195.6 50.5681 1194.04 47.8656C1192.59 45.1631 1190.66 42.9283 1188.27 41.1613C1185.88 39.3943 1183.08 38.043 1179.85 37.1075C1176.74 36.172 1173.36 35.7043 1169.72 35.7043C1164.73 35.7043 1160.31 36.7437 1156.47 38.8226C1152.62 40.7975 1149.4 43.5 1146.8 46.9301C1144.2 50.2563 1142.23 54.1022 1140.87 58.4678C1139.52 62.7294 1138.85 67.147 1138.85 71.7204C1138.85 77.1255 1139.47 82.1147 1140.72 86.6882C1141.97 91.2617 1143.89 95.2635 1146.49 98.6936C1149.09 102.02 1152.31 104.618 1156.15 106.489C1160 108.36 1164.52 109.296 1169.72 109.296C1173.46 109.296 1176.89 108.672 1180.01 107.425C1183.23 106.177 1186.04 104.462 1188.43 102.28C1190.92 100.097 1192.95 97.4982 1194.51 94.4839C1196.07 91.3656 1197.11 87.9875 1197.63 84.3495H1203.55C1202.93 89.1308 1201.63 93.3925 1199.65 97.1344C1197.68 100.876 1195.19 104.047 1192.17 106.645C1189.16 109.14 1185.73 111.063 1181.88 112.414C1178.03 113.765 1173.98 114.441 1169.72 114.441C1163.17 114.441 1157.56 113.298 1152.88 111.011C1148.31 108.62 1144.51 105.45 1141.5 101.5C1138.59 97.5502 1136.41 93.0287 1134.95 87.9355C1133.6 82.7384 1132.92 77.3334 1132.92 71.7204C1132.92 66.1075 1133.7 60.8065 1135.26 55.8172C1136.93 50.828 1139.32 46.4624 1142.43 42.7204C1145.55 38.9785 1149.4 36.0161 1153.97 33.8333C1158.55 31.6505 1163.79 30.5591 1169.72 30.5591C1174.08 30.5591 1178.14 31.1308 1181.88 32.2742C1185.73 33.3136 1189.1 34.9247 1192.01 37.1075C1195.03 39.2903 1197.47 42.0968 1199.34 45.5269C1201.21 48.8531 1202.36 52.7509 1202.77 57.2204H1196.85Z" fill="#222222"/>
<path d="M1109.8 96.5109H1117.75V112.57H1109.8V96.5109Z" fill="#222222"/>
<path d="M1036.45 85.9086C1036.66 89.6506 1037.49 92.9767 1038.94 95.8871C1040.4 98.6936 1042.27 101.136 1044.56 103.215C1046.95 105.19 1049.7 106.697 1052.82 107.737C1055.94 108.776 1059.32 109.296 1062.95 109.296C1065.55 109.296 1068.31 109.088 1071.22 108.672C1074.23 108.152 1076.99 107.269 1079.48 106.022C1082.08 104.774 1084.21 103.059 1085.87 100.876C1087.54 98.5896 1088.37 95.7312 1088.37 92.3011C1088.37 87.8316 1087.02 84.4534 1084.31 82.1667C1081.61 79.88 1078.18 78.1129 1074.02 76.8656C1069.97 75.6183 1065.55 74.6308 1060.77 73.9032C1056.09 73.0717 1051.68 71.8764 1047.52 70.3172C1043.47 68.7581 1040.09 66.5753 1037.38 63.7688C1034.68 60.8584 1033.33 56.6488 1033.33 51.1398C1033.33 47.19 1034.21 43.9158 1035.98 41.3172C1037.75 38.6147 1039.98 36.4839 1042.69 34.9247C1045.49 33.3656 1048.61 32.2742 1052.04 31.6505C1055.47 30.9229 1058.9 30.5591 1062.33 30.5591C1066.49 30.5591 1070.39 31.0269 1074.02 31.9624C1077.66 32.8979 1080.78 34.405 1083.38 36.4839C1086.08 38.5627 1088.16 41.2133 1089.62 44.4355C1091.17 47.6577 1091.95 51.5556 1091.95 56.129H1086.03C1086.03 52.4911 1085.41 49.3728 1084.16 46.7742C1083.02 44.1756 1081.35 42.0968 1079.17 40.5376C1077.09 38.8746 1074.6 37.6792 1071.69 36.9516C1068.78 36.1201 1065.66 35.7043 1062.33 35.7043C1059.63 35.7043 1056.87 35.9642 1054.07 36.4839C1051.36 37.0036 1048.92 37.8871 1046.74 39.1344C1044.56 40.3817 1042.74 41.9928 1041.28 43.9678C1039.93 45.9427 1039.26 48.3333 1039.26 51.1398C1039.26 54.362 1040.04 56.9606 1041.59 58.9355C1043.15 60.9104 1045.18 62.5215 1047.67 63.7688C1050.27 64.9122 1053.13 65.8477 1056.25 66.5753C1059.47 67.3029 1062.69 68.0305 1065.92 68.7581C1069.87 69.4857 1073.56 70.3692 1076.99 71.4086C1080.52 72.3441 1083.54 73.6954 1086.03 75.4624C1088.63 77.1255 1090.66 79.3083 1092.11 82.0108C1093.57 84.7133 1094.29 88.1434 1094.29 92.3011C1094.29 96.6667 1093.31 100.253 1091.33 103.059C1089.36 105.866 1086.86 108.152 1083.85 109.919C1080.83 111.582 1077.45 112.726 1073.71 113.349C1070.07 114.077 1066.49 114.441 1062.95 114.441C1058.38 114.441 1054.12 113.817 1050.17 112.57C1046.32 111.427 1042.95 109.66 1040.04 107.269C1037.12 104.774 1034.84 101.76 1033.17 98.2258C1031.51 94.6918 1030.63 90.586 1030.52 85.9086H1036.45Z" fill="#222222"/>
<path d="M960.588 32.4301H966.513V49.5807H966.825C967.864 46.5663 969.32 43.9158 971.191 41.629C973.165 39.2384 975.4 37.2115 977.895 35.5484C980.493 33.8853 983.3 32.638 986.314 31.8065C989.328 30.9749 992.395 30.5591 995.513 30.5591C1000.19 30.5591 1004.14 31.1308 1007.36 32.2742C1010.69 33.4176 1013.39 34.9247 1015.47 36.7957C1017.55 38.6667 1019.16 40.7975 1020.3 43.1882C1021.55 45.4749 1022.43 47.8136 1022.95 50.2043C1023.47 52.595 1023.79 54.9337 1023.89 57.2204C1023.99 59.4032 1024.05 61.3262 1024.05 62.9893V112.57H1018.12V61.8979C1018.12 59.923 1017.96 57.4283 1017.65 54.414C1017.34 51.3997 1016.41 48.5412 1014.85 45.8387C1013.39 43.0323 1011.1 40.6416 1007.99 38.6667C1004.97 36.6918 1000.76 35.7043 995.357 35.7043C990.784 35.7043 986.73 36.5358 983.196 38.1989C979.662 39.862 976.648 42.2007 974.153 45.2151C971.658 48.1255 969.735 51.6595 968.384 55.8172C967.137 59.871 966.513 64.3405 966.513 69.2258V112.57H960.588V32.4301Z" fill="#222222"/>
<path d="M880.899 72.5C880.899 66.7832 881.679 61.4301 883.238 56.4409C884.901 51.3477 887.292 46.8781 890.41 43.0323C893.528 39.1864 897.374 36.1721 901.948 33.9893C906.521 31.7025 911.77 30.5591 917.695 30.5591C923.62 30.5591 928.869 31.7025 933.442 33.9893C938.016 36.1721 941.862 39.1864 944.98 43.0323C948.098 46.8781 950.437 51.3477 951.996 56.4409C953.659 61.4301 954.491 66.7832 954.491 72.5C954.491 78.2169 953.659 83.6219 951.996 88.7151C950.437 93.8083 948.098 98.2778 944.98 102.124C941.862 105.866 938.016 108.88 933.442 111.167C928.869 113.349 923.62 114.441 917.695 114.441C911.77 114.441 906.521 113.349 901.948 111.167C897.374 108.88 893.528 105.866 890.41 102.124C887.292 98.2778 884.901 93.8083 883.238 88.7151C881.679 83.6219 880.899 78.2169 880.899 72.5ZM886.824 72.5C886.824 77.2814 887.5 81.9068 888.851 86.3764C890.202 90.742 892.177 94.6398 894.776 98.0699C897.374 101.5 900.596 104.255 904.442 106.333C908.288 108.308 912.706 109.296 917.695 109.296C922.684 109.296 927.102 108.308 930.948 106.333C934.794 104.255 938.016 101.5 940.614 98.0699C943.213 94.6398 945.188 90.742 946.539 86.3764C947.89 81.9068 948.566 77.2814 948.566 72.5C948.566 67.7187 947.89 63.1452 946.539 58.7796C945.188 54.3101 943.213 50.3602 940.614 46.9301C938.016 43.5 934.794 40.7975 930.948 38.8226C927.102 36.7437 922.684 35.7043 917.695 35.7043C912.706 35.7043 908.288 36.7437 904.442 38.8226C900.596 40.7975 897.374 43.5 894.776 46.9301C892.177 50.3602 890.202 54.3101 888.851 58.7796C887.5 63.1452 886.824 67.7187 886.824 72.5Z" fill="#222222"/>
<path d="M867.652 17.3064V1.24725H873.576V17.3064H867.652ZM867.652 112.57V32.4301H873.576V112.57H867.652Z" fill="#222222"/>
<path d="M863.163 37.5754H845.701V93.5485C845.701 96.7707 846.064 99.3173 846.792 101.188C847.52 103.059 848.611 104.514 850.066 105.554C851.625 106.489 853.444 107.061 855.523 107.269C857.706 107.477 860.201 107.529 863.007 107.425V112.57C859.993 112.778 857.03 112.778 854.12 112.57C851.313 112.258 848.819 111.479 846.636 110.231C844.453 108.88 842.686 106.905 841.335 104.307C840.088 101.708 839.568 98.122 839.776 93.5485V37.5754H824.964V32.4302H839.776V7.48395H845.701V32.4302H863.163V37.5754Z" fill="#222222"/>
<path d="M824.098 112.57H818.173V95.4197H817.861C816.822 98.434 815.315 101.137 813.34 103.527C811.469 105.814 809.234 107.789 806.636 109.452C804.141 111.115 801.387 112.362 798.372 113.194C795.358 114.025 792.292 114.441 789.173 114.441C784.496 114.441 780.494 113.87 777.168 112.726C773.946 111.583 771.295 110.076 769.216 108.205C767.137 106.334 765.474 104.255 764.227 101.968C763.084 99.5774 762.252 97.1867 761.732 94.796C761.213 92.4053 760.901 90.1186 760.797 87.9358C760.693 85.6491 760.641 83.6742 760.641 82.0111V32.4304H766.566V83.1025C766.566 85.1813 766.722 87.7279 767.033 90.7423C767.345 93.6526 768.229 96.5111 769.684 99.3175C771.243 102.02 773.53 104.359 776.544 106.334C779.559 108.309 783.82 109.296 789.329 109.296C793.799 109.296 797.8 108.464 801.335 106.801C804.973 105.138 808.039 102.852 810.533 99.9412C813.028 96.9269 814.899 93.3928 816.146 89.339C817.498 85.1813 818.173 80.6598 818.173 75.7745V32.4304H824.098V112.57Z" fill="#222222"/>
<path d="M749.576 1.24725V112.57H743.651V1.24725H749.576Z" fill="#222222"/>
<path d="M662.559 72.5C662.559 66.7832 663.338 61.4301 664.898 56.4409C666.561 51.3477 668.951 46.8781 672.07 43.0323C675.188 39.1864 679.034 36.1721 683.607 33.9893C688.181 31.7025 693.43 30.5591 699.355 30.5591C705.279 30.5591 710.528 31.7025 715.102 33.9893C719.675 36.1721 723.521 39.1864 726.639 43.0323C729.758 46.8781 732.096 51.3477 733.656 56.4409C735.319 61.4301 736.15 66.7832 736.15 72.5C736.15 78.2169 735.319 83.6219 733.656 88.7151C732.096 93.8083 729.758 98.2778 726.639 102.124C723.521 105.866 719.675 108.88 715.102 111.167C710.528 113.349 705.279 114.441 699.355 114.441C693.43 114.441 688.181 113.349 683.607 111.167C679.034 108.88 675.188 105.866 672.07 102.124C668.951 98.2778 666.561 93.8083 664.898 88.7151C663.338 83.6219 662.559 78.2169 662.559 72.5ZM668.484 72.5C668.484 77.2814 669.159 81.9068 670.51 86.3764C671.862 90.742 673.837 94.6398 676.435 98.0699C679.034 101.5 682.256 104.255 686.102 106.333C689.948 108.308 694.365 109.296 699.355 109.296C704.344 109.296 708.761 108.308 712.607 106.333C716.453 104.255 719.675 101.5 722.274 98.0699C724.872 94.6398 726.847 90.742 728.199 86.3764C729.55 81.9068 730.226 77.2814 730.226 72.5C730.226 67.7187 729.55 63.1452 728.199 58.7796C726.847 54.3101 724.872 50.3602 722.274 46.9301C719.675 43.5 716.453 40.7975 712.607 38.8226C708.761 36.7437 704.344 35.7043 699.355 35.7043C694.365 35.7043 689.948 36.7437 686.102 38.8226C682.256 40.7975 679.034 43.5 676.435 46.9301C673.837 50.3602 671.862 54.3101 670.51 58.7796C669.159 63.1452 668.484 67.7187 668.484 72.5Z" fill="#222222"/>
<path d="M601.839 85.9086C602.047 89.6506 602.878 92.9767 604.333 95.8871C605.789 98.6936 607.66 101.136 609.946 103.215C612.337 105.19 615.092 106.697 618.21 107.737C621.328 108.776 624.706 109.296 628.344 109.296C630.943 109.296 633.697 109.088 636.608 108.672C639.622 108.152 642.376 107.269 644.871 106.022C647.47 104.774 649.6 103.059 651.264 100.876C652.927 98.5896 653.758 95.7312 653.758 92.3011C653.758 87.8316 652.407 84.4534 649.704 82.1667C647.002 79.88 643.572 78.1129 639.414 76.8656C635.36 75.6183 630.943 74.6308 626.161 73.9032C621.484 73.0717 617.066 71.8764 612.909 70.3172C608.855 68.7581 605.477 66.5753 602.774 63.7688C600.072 60.8584 598.721 56.6488 598.721 51.1398C598.721 47.19 599.604 43.9158 601.371 41.3172C603.138 38.6147 605.373 36.4839 608.075 34.9247C610.882 33.3656 614 32.2742 617.43 31.6505C620.86 30.9229 624.29 30.5591 627.721 30.5591C631.878 30.5591 635.776 31.0269 639.414 31.9624C643.052 32.8979 646.17 34.405 648.769 36.4839C651.471 38.5627 653.55 41.2133 655.005 44.4355C656.565 47.6577 657.344 51.5556 657.344 56.129H651.419C651.419 52.4911 650.796 49.3728 649.548 46.7742C648.405 44.1756 646.742 42.0968 644.559 40.5376C642.48 38.8746 639.986 37.6792 637.075 36.9516C634.165 36.1201 631.047 35.7043 627.721 35.7043C625.018 35.7043 622.264 35.9642 619.457 36.4839C616.755 37.0036 614.312 37.8871 612.129 39.1344C609.946 40.3817 608.127 41.9928 606.672 43.9678C605.321 45.9427 604.645 48.3333 604.645 51.1398C604.645 54.362 605.425 56.9606 606.984 58.9355C608.543 60.9104 610.57 62.5215 613.065 63.7688C615.663 64.9122 618.522 65.8477 621.64 66.5753C624.862 67.3029 628.084 68.0305 631.307 68.7581C635.256 69.4857 638.946 70.3692 642.376 71.4086C645.91 72.3441 648.925 73.6954 651.419 75.4624C654.018 77.1255 656.045 79.3083 657.5 82.0108C658.955 84.7133 659.683 88.1434 659.683 92.3011C659.683 96.6667 658.695 100.253 656.721 103.059C654.746 105.866 652.251 108.152 649.237 109.919C646.222 111.582 642.844 112.726 639.102 113.349C635.464 114.077 631.878 114.441 628.344 114.441C623.771 114.441 619.509 113.817 615.559 112.57C611.713 111.427 608.335 109.66 605.425 107.269C602.514 104.774 600.228 101.76 598.565 98.2258C596.902 94.6918 596.018 90.586 595.914 85.9086H601.839Z" fill="#222222"/>
<path d="M560.489 37.5753V32.4301H574.833V15.9032C574.833 13.0968 575.301 10.7061 576.236 8.73119C577.172 6.65233 578.419 4.98925 579.978 3.74194C581.641 2.49463 583.512 1.55914 585.591 0.935489C587.774 0.311828 590.06 0 592.451 0C594.218 0 596.557 0.259858 599.467 0.779577V5.92474C596.557 5.40503 594.218 5.14517 592.451 5.14517C589.125 5.14517 586.319 5.92474 584.032 7.48388C581.849 8.93908 580.758 11.9014 580.758 16.371V32.4301H597.44V37.5753H580.758V112.57H574.833V37.5753H560.489Z" fill="#222222"/>
<path d="M566.134 37.5754H548.672V93.5485C548.672 96.7707 549.036 99.3173 549.764 101.188C550.491 103.059 551.582 104.514 553.038 105.554C554.597 106.489 556.416 107.061 558.495 107.269C560.677 107.477 563.172 107.529 565.979 107.425V112.57C562.964 112.778 560.002 112.778 557.091 112.57C554.285 112.258 551.79 111.479 549.608 110.231C547.425 108.88 545.658 106.905 544.306 104.307C543.059 101.708 542.54 98.122 542.747 93.5485V37.5754H527.936V32.4302H542.747V7.48395H548.672V32.4302H566.134V37.5754Z" fill="#222222"/>
<path d="M527.07 112.57H521.145V95.4197H520.833C519.794 98.434 518.286 101.137 516.312 103.527C514.441 105.814 512.206 107.789 509.607 109.452C507.113 111.115 504.358 112.362 501.344 113.194C498.329 114.025 495.263 114.441 492.145 114.441C487.467 114.441 483.466 113.87 480.139 112.726C476.917 111.583 474.267 110.076 472.188 108.205C470.109 106.334 468.446 104.255 467.199 101.968C466.055 99.5774 465.224 97.1867 464.704 94.796C464.184 92.4053 463.872 90.1186 463.768 87.9358C463.665 85.6491 463.613 83.6742 463.613 82.0111V32.4304H469.537V83.1025C469.537 85.1813 469.693 87.7279 470.005 90.7423C470.317 93.6526 471.2 96.5111 472.656 99.3175C474.215 102.02 476.501 104.359 479.516 106.334C482.53 108.309 486.792 109.296 492.301 109.296C496.77 109.296 500.772 108.464 504.306 106.801C507.944 105.138 511.01 102.852 513.505 99.9412C516 96.9269 517.871 93.3928 519.118 89.339C520.469 85.1813 521.145 80.6598 521.145 75.7745V32.4304H527.07V112.57Z" fill="#222222"/>
<path d="M436.901 96.5109H444.853V112.57H436.901V96.5109Z" fill="#222222"/>
<path d="M349.794 105.71H350.106L371.934 32.4304H379.885L401.869 105.71H402.181L424.633 32.4304H431.181L405.455 112.57H398.127L376.144 39.9143H375.832L353.692 112.57H346.208L320.794 32.4304H327.187L349.794 105.71Z" fill="#222222"/>
<path d="M244.765 105.71H245.077L266.905 32.4304H274.857L296.841 105.71H297.153L319.604 32.4304H326.153L300.427 112.57H293.099L271.115 39.9143H270.803L248.663 112.57H241.179L215.765 32.4304H222.158L244.765 105.71Z" fill="#222222"/>
<path d="M139.736 105.71H140.048L161.876 32.4304H169.828L191.812 105.71H192.124L214.575 32.4304H221.124L195.398 112.57H188.07L166.086 39.9143H165.774L143.634 112.57H136.15L110.736 32.4304H117.129L139.736 105.71Z" fill="#222222"/>
<path d="M1.69559 111.463C1.23186 110.998 1 110.463 1 109.859C1 109.208 1.25505 108.603 1.76515 108.045L63.4639 46.1868L73.3412 36.6326C73.8513 36.1212 74.3846 35.8887 74.9411 35.9352C75.5439 35.9352 76.0772 36.1444 76.5409 36.5628C76.9583 37.0278 77.167 37.5624 77.167 38.1668C77.167 38.7248 76.9119 39.2827 76.4018 39.8406L66.9418 49.7435L5.24309 111.463C4.68662 112.067 4.08378 112.346 3.43456 112.3C2.78534 112.253 2.20569 111.974 1.69559 111.463ZM74.7324 60.5531L75.2193 37.8879L48.5087 38.3761H20.1287C19.4795 38.3761 18.8998 38.1668 18.3897 37.7484C17.8796 37.2835 17.6246 36.7023 17.6246 36.0049C17.6246 35.3075 17.8564 34.7264 18.3202 34.2615C18.8303 33.75 19.4563 33.4943 20.1982 33.4943H77.0278C77.7698 33.4943 78.3958 33.75 78.9059 34.2615C79.416 34.7729 79.6711 35.4005 79.6711 36.1444L79.8102 93.0515C79.8102 93.7954 79.5552 94.4231 79.0451 94.9345C78.535 95.4459 77.9321 95.7016 77.2365 95.7016C76.5409 95.7016 75.9381 95.4459 75.428 94.9345C74.9643 94.3766 74.7324 93.7722 74.7324 93.1213V60.5531Z" fill="#222222"/>
</svg>
