<svg width="2864" height="124" viewBox="0 0 2864 124" fill="none" xmlns="http://www.w3.org/2000/svg">
<path d="M1392 5.01001V98.8484H1363.83V45.0911H1341.9V25.3214H1344.47C1351.33 25.3214 1357.15 23.5159 1361.94 19.905C1366.81 16.2038 1369.34 11.2388 1369.52 5.01001H1392Z" fill="black"/>
<path d="M1309.68 5.01001V98.8484H1281.51V45.0911H1259.57V25.3214H1262.15C1269.01 25.3214 1274.83 23.5159 1279.61 19.905C1284.49 16.2038 1287.02 11.2388 1287.2 5.01001H1309.68Z" fill="black"/>
<path d="M1248.16 70.8191C1246.89 80.2074 1243.01 87.5195 1236.51 92.7553C1230.1 97.9911 1221.8 100.609 1211.6 100.609C1200.31 100.609 1191.1 97.269 1183.97 90.5888C1176.93 83.9086 1173.41 75.1973 1173.41 64.4548C1173.41 53.3513 1176.93 44.4143 1183.97 37.6439C1191.01 30.7831 1200.27 27.3528 1211.73 27.3528C1221.84 27.3528 1230.15 29.9256 1236.65 35.0711C1243.24 40.2166 1246.89 46.9871 1247.61 55.3824H1222.02C1221.66 52.584 1220.53 50.3723 1218.64 48.7474C1216.83 47.1225 1214.62 46.31 1212 46.31C1204.15 46.31 1200.22 52.4034 1200.22 64.5902C1200.22 75.6035 1204.1 81.1102 1211.87 81.1102C1217.91 81.1102 1221.48 77.6798 1222.56 70.8191H1248.16Z" fill="black"/>
<path d="M1172.6 56.1947V78.4018H1160.28V98.8485H1132.79V78.4018H1091.36V53.7573L1133.47 5.14551H1160.28V56.1947H1172.6ZM1133.74 56.3301V38.4561L1134.15 29.7899L1111.8 56.7363C1115.87 56.4655 1118.66 56.3301 1120.2 56.3301H1133.74Z" fill="black"/>
<path d="M1046.27 71.0898V95.5989C1046.27 103.814 1043.74 110.539 1038.69 115.775C1033.63 121.101 1026.95 123.809 1018.65 123.899V111.442C1022.35 110.629 1025.15 109.23 1027.04 107.244C1028.94 105.348 1030.02 102.55 1030.29 98.8487H1018.65V71.0898H1046.27Z" fill="black"/>
<path d="M982.312 75.0165L969.719 98.8485H937.762L955.772 72.5791C950.897 70.5028 947.331 67.4787 945.074 63.5067C942.908 59.4444 941.824 55.4273 941.824 51.4553C941.824 44.5946 944.352 39.1331 949.407 35.0708C954.553 31.0086 962.181 28.9774 972.291 28.9774H1013.05V98.8485H986.374V75.0165H982.312ZM986.374 59.5799V44.5495H978.927C972.607 44.5495 969.448 47.0319 969.448 51.9969C969.448 57.0522 972.562 59.5799 978.791 59.5799H986.374Z" fill="black"/>
<path d="M942.051 98.8487H914.969C914.337 96.5016 913.976 94.3351 913.886 92.3491C908.018 98.2168 900.571 101.151 891.543 101.151C883.599 101.151 877.371 99.2098 872.857 95.3281C868.434 91.4463 866.222 86.0751 866.222 79.2144C866.222 75.6938 866.944 72.6245 868.388 70.0066C869.833 67.3887 871.277 65.4027 872.722 64.0486C874.256 62.6042 876.829 61.3404 880.44 60.2571C884.051 59.0836 886.624 58.3614 888.158 58.0906C889.693 57.8198 892.672 57.3684 897.095 56.7365C897.817 56.6462 898.359 56.556 898.72 56.4657C899.171 56.3754 900.255 56.2851 901.97 56.1949C903.685 56.0143 904.994 55.8338 905.897 55.6532C906.89 55.4727 908.018 55.1567 909.282 54.7054C910.636 54.254 911.629 53.577 912.261 52.6742C912.893 51.7715 913.209 50.6882 913.209 49.4244C913.209 45.3622 910.275 43.331 904.407 43.331C901.157 43.331 898.81 43.8275 897.366 44.8205C895.922 45.8135 894.974 47.6641 894.522 50.3723H869.472C870.104 34.7551 881.749 26.9465 904.407 26.9465C922.372 26.9465 933.385 31.2796 937.447 39.9458C938.711 42.5637 939.343 46.8065 939.343 52.6742C939.343 55.4727 939.298 59.6252 939.207 65.1319C939.117 70.5482 939.072 75.1521 939.072 78.9436C939.072 88.2417 940.065 94.8767 942.051 98.8487ZM913.344 67.0276C911.358 68.3817 907.206 69.7358 900.887 71.0899C896.012 72.1731 893.575 74.6105 893.575 78.4019C893.575 80.5685 894.252 82.2837 895.606 83.5475C896.96 84.8113 898.81 85.4432 901.157 85.4432C906.032 85.4432 909.553 83.6378 911.719 80.0269C912.803 78.2214 913.344 75.2875 913.344 71.2253V67.0276Z" fill="black"/>
<path d="M837.185 51.9969V28.9774H863.861V98.8485H837.185V72.1729H817.551V98.8485H790.875V28.9774H817.551V51.9969H837.185Z" fill="black"/>
<path d="M740.684 49.1534H718.342V28.9774H789.567V49.1534H767.224V98.8485H740.684V49.1534Z" fill="black"/>
<path d="M720.599 98.8487H693.517C692.885 96.5016 692.524 94.3351 692.434 92.3491C686.566 98.2168 679.119 101.151 670.092 101.151C662.148 101.151 655.919 99.2098 651.405 95.3281C646.982 91.4463 644.77 86.0751 644.77 79.2144C644.77 75.6938 645.492 72.6245 646.937 70.0066C648.381 67.3887 649.825 65.4027 651.27 64.0486C652.804 62.6042 655.377 61.3404 658.988 60.2571C662.599 59.0836 665.172 58.3614 666.706 58.0906C668.241 57.8198 671.22 57.3684 675.643 56.7365C676.366 56.6462 676.907 56.556 677.268 56.4657C677.72 56.3754 678.803 56.2851 680.518 56.1949C682.233 56.0143 683.542 55.8338 684.445 55.6532C685.438 55.4727 686.566 55.1567 687.83 54.7054C689.184 54.254 690.177 53.577 690.809 52.6742C691.441 51.7715 691.757 50.6882 691.757 49.4244C691.757 45.3622 688.823 43.331 682.955 43.331C679.706 43.331 677.358 43.8275 675.914 44.8205C674.47 45.8135 673.522 47.6641 673.071 50.3723H648.02C648.652 34.7551 660.297 26.9465 682.955 26.9465C700.92 26.9465 711.933 31.2796 715.995 39.9458C717.259 42.5637 717.891 46.8065 717.891 52.6742C717.891 55.4727 717.846 59.6252 717.756 65.1319C717.665 70.5482 717.62 75.1521 717.62 78.9436C717.62 88.2417 718.613 94.8767 720.599 98.8487ZM691.892 67.0276C689.906 68.3817 685.754 69.7358 679.435 71.0899C674.56 72.1731 672.123 74.6105 672.123 78.4019C672.123 80.5685 672.8 82.2837 674.154 83.5475C675.508 84.8113 677.358 85.4432 679.706 85.4432C684.58 85.4432 688.101 83.6378 690.267 80.0269C691.351 78.2214 691.892 75.2875 691.892 71.2253V67.0276Z" fill="black"/>
<path d="M647.84 28.9774L623.196 56.33L651.225 98.8485H619.946L606.269 75.1519L600.718 81.3807V98.8485H574.042V28.9774H600.718V51.9969H601.124L618.456 28.9774H647.84Z" fill="black"/>
<path d="M532.758 26.9465C544.042 26.9465 553.205 30.3318 560.246 37.1022C567.287 43.8727 570.808 52.7194 570.808 63.6424C570.808 74.6556 567.242 83.6378 560.111 90.5888C552.979 97.4495 543.771 100.88 532.487 100.88C521.113 100.88 511.86 97.4495 504.729 90.5888C497.597 83.728 494.031 74.8362 494.031 63.9132C494.031 52.9902 497.597 44.0983 504.729 37.2376C511.95 30.3769 521.294 26.9465 532.758 26.9465ZM532.217 46.31C524.634 46.31 520.842 52.1777 520.842 63.9132C520.842 75.7389 524.724 81.6518 532.487 81.6518C540.161 81.6518 543.997 75.6486 543.997 63.6424C543.997 52.0875 540.07 46.31 532.217 46.31Z" fill="black"/>
<path d="M421.479 55.1114H421.072L421.749 98.8485H396.969V28.9774H430.416L443.686 69.7355H443.821L456.956 28.9774H490.537V98.8485H465.757L466.434 55.1114H466.028L451.675 98.8485H435.832L421.479 55.1114Z" fill="black"/>
<path d="M393.946 98.8487H366.864C366.232 96.5016 365.871 94.3351 365.781 92.3491C359.913 98.2168 352.466 101.151 343.438 101.151C335.494 101.151 329.266 99.2098 324.752 95.3281C320.329 91.4463 318.117 86.0751 318.117 79.2144C318.117 75.6938 318.839 72.6245 320.283 70.0066C321.728 67.3887 323.172 65.4027 324.617 64.0486C326.151 62.6042 328.724 61.3404 332.335 60.2571C335.946 59.0836 338.519 58.3614 340.053 58.0906C341.588 57.8198 344.567 57.3684 348.99 56.7365C349.712 56.6462 350.254 56.556 350.615 56.4657C351.066 56.3754 352.15 56.2851 353.865 56.1949C355.58 56.0143 356.889 55.8338 357.792 55.6532C358.785 55.4727 359.913 55.1567 361.177 54.7054C362.531 54.254 363.524 53.577 364.156 52.6742C364.788 51.7715 365.104 50.6882 365.104 49.4244C365.104 45.3622 362.17 43.331 356.302 43.331C353.052 43.331 350.705 43.8275 349.261 44.8205C347.817 45.8135 346.869 47.6641 346.417 50.3723H321.367C321.999 34.7551 333.644 26.9465 356.302 26.9465C374.267 26.9465 385.28 31.2796 389.342 39.9458C390.606 42.5637 391.238 46.8065 391.238 52.6742C391.238 55.4727 391.193 59.6252 391.102 65.1319C391.012 70.5482 390.967 75.1521 390.967 78.9436C390.967 88.2417 391.96 94.8767 393.946 98.8487ZM365.239 67.0276C363.253 68.3817 359.101 69.7358 352.782 71.0899C347.907 72.1731 345.47 74.6105 345.47 78.4019C345.47 80.5685 346.147 82.2837 347.501 83.5475C348.855 84.8113 350.705 85.4432 353.052 85.4432C357.927 85.4432 361.448 83.6378 363.614 80.0269C364.698 78.2214 365.239 75.2875 365.239 71.2253V67.0276Z" fill="black"/>
<path d="M318.823 60.7986C318.01 73.6174 313.406 83.5473 305.011 90.5886C296.706 97.6299 286.415 101.151 274.138 101.151C259.604 101.151 247.913 96.3209 239.067 86.6617C230.22 77.0026 225.797 64.906 225.797 50.3721C225.797 36.0188 230.31 24.0577 239.338 14.4888C248.455 4.82959 260.236 0 274.679 0C286.415 0 296.435 3.65604 304.74 10.9681C313.135 18.1899 317.694 27.2172 318.416 38.0499H289.71C288.897 33.7168 287.137 30.3768 284.429 28.0297C281.721 25.6826 278.29 24.509 274.138 24.509C269.805 24.509 266.149 25.9083 263.17 28.7067C260.281 31.4149 258.295 34.6196 257.212 38.3207C256.128 42.0219 255.587 46.0391 255.587 50.3721C255.587 58.4064 257.212 64.7255 260.461 69.3294C263.801 73.9333 268.36 76.2353 274.138 76.2353C282.984 76.2353 288.175 71.0897 289.71 60.7986H318.823Z" fill="black"/>
<path d="M180.168 71.0898V98.8487H152.274V71.0898H180.168Z" fill="black"/>
<path d="M146.738 98.8485H120.604V49.1534H107.334C107.334 61.5207 106.612 71.0445 105.167 77.7246C103.542 85.7589 100.654 91.5364 96.5011 95.057C92.4388 98.4874 86.6162 100.203 79.0333 100.203C77.8598 100.203 76.4605 100.022 74.8356 99.6609C73.301 99.3901 72.0372 99.1193 71.0442 98.8485L69.5547 98.3068V79.2141C71.2699 79.8461 72.7142 80.162 73.8878 80.162C75.0613 80.162 76.0543 79.9363 76.8668 79.485C77.7695 78.9433 78.4917 78.176 79.0333 77.183C79.6652 76.0997 80.1617 75.1067 80.5228 74.204C80.8839 73.211 81.1096 71.9472 81.1999 70.4126C81.3804 68.7877 81.5158 67.5238 81.6061 66.6211C81.6964 65.7184 81.7415 64.4997 81.7415 62.9651C81.8318 61.3402 81.8769 60.3472 81.8769 59.9861C82.1477 53.7573 82.2831 43.421 82.2831 28.9774H146.738V98.8485Z" fill="black"/>
<path d="M78.6726 28.9774L53.0803 100.473C50.2819 108.327 46.8515 113.789 42.7892 116.858C38.8172 119.927 32.7238 121.462 24.509 121.462H7.04127V100.067C8.93699 100.157 11.0133 100.203 13.2701 100.203C14.7144 100.203 15.888 100.157 16.7907 100.067C17.6934 99.9769 18.7316 99.7512 19.9051 99.3901C21.0787 99.1193 21.9814 98.5776 22.6133 97.7652C23.2452 96.8625 23.5612 95.734 23.5612 94.38C23.5612 93.4772 23.2903 92.3488 22.7487 90.9947L0 28.9774H28.4359L36.2896 56.6009C37.5534 61.1145 38.6818 66.5308 39.6748 72.8499C41.2997 64.5449 42.5636 58.8577 43.4663 55.7884L51.1846 28.9774H78.6726Z" fill="black"/>
<path d="M2864 5.01001V98.8484H2835.83V45.0911H2813.9V25.3214H2816.47C2823.33 25.3214 2829.15 23.5159 2833.94 19.905C2838.81 16.2038 2841.34 11.2388 2841.52 5.01001H2864Z" fill="black"/>
<path d="M2781.68 5.01001V98.8484H2753.51V45.0911H2731.57V25.3214H2734.15C2741.01 25.3214 2746.83 23.5159 2751.61 19.905C2756.49 16.2038 2759.02 11.2388 2759.2 5.01001H2781.68Z" fill="black"/>
<path d="M2720.16 70.8191C2718.89 80.2074 2715.01 87.5195 2708.51 92.7553C2702.1 97.9911 2693.8 100.609 2683.6 100.609C2672.31 100.609 2663.1 97.269 2655.97 90.5888C2648.93 83.9086 2645.41 75.1973 2645.41 64.4548C2645.41 53.3513 2648.93 44.4143 2655.97 37.6439C2663.01 30.7831 2672.27 27.3528 2683.73 27.3528C2693.84 27.3528 2702.15 29.9256 2708.65 35.0711C2715.24 40.2166 2718.89 46.9871 2719.61 55.3824H2694.02C2693.66 52.584 2692.53 50.3723 2690.64 48.7474C2688.83 47.1225 2686.62 46.31 2684 46.31C2676.15 46.31 2672.22 52.4034 2672.22 64.5902C2672.22 75.6035 2676.1 81.1102 2683.87 81.1102C2689.91 81.1102 2693.48 77.6798 2694.56 70.8191H2720.16Z" fill="black"/>
<path d="M2644.6 56.1947V78.4018H2632.28V98.8485H2604.79V78.4018H2563.36V53.7573L2605.47 5.14551H2632.28V56.1947H2644.6ZM2605.74 56.3301V38.4561L2606.15 29.7899L2583.8 56.7363C2587.87 56.4655 2590.66 56.3301 2592.2 56.3301H2605.74Z" fill="black"/>
<path d="M2518.27 71.0898V95.5989C2518.27 103.814 2515.74 110.539 2510.69 115.775C2505.63 121.101 2498.95 123.809 2490.65 123.899V111.442C2494.35 110.629 2497.15 109.23 2499.04 107.244C2500.94 105.348 2502.02 102.55 2502.29 98.8487H2490.65V71.0898H2518.27Z" fill="black"/>
<path d="M2454.31 75.0165L2441.72 98.8485H2409.76L2427.77 72.5791C2422.9 70.5028 2419.33 67.4787 2417.07 63.5067C2414.91 59.4444 2413.82 55.4273 2413.82 51.4553C2413.82 44.5946 2416.35 39.1331 2421.41 35.0708C2426.55 31.0086 2434.18 28.9774 2444.29 28.9774H2485.05V98.8485H2458.37V75.0165H2454.31ZM2458.37 59.5799V44.5495H2450.93C2444.61 44.5495 2441.45 47.0319 2441.45 51.9969C2441.45 57.0522 2444.56 59.5799 2450.79 59.5799H2458.37Z" fill="black"/>
<path d="M2414.05 98.8487H2386.97C2386.34 96.5016 2385.98 94.3351 2385.89 92.3491C2380.02 98.2168 2372.57 101.151 2363.54 101.151C2355.6 101.151 2349.37 99.2098 2344.86 95.3281C2340.43 91.4463 2338.22 86.0751 2338.22 79.2144C2338.22 75.6938 2338.94 72.6245 2340.39 70.0066C2341.83 67.3887 2343.28 65.4027 2344.72 64.0486C2346.26 62.6042 2348.83 61.3404 2352.44 60.2571C2356.05 59.0836 2358.62 58.3614 2360.16 58.0906C2361.69 57.8198 2364.67 57.3684 2369.1 56.7365C2369.82 56.6462 2370.36 56.556 2370.72 56.4657C2371.17 56.3754 2372.25 56.2851 2373.97 56.1949C2375.69 56.0143 2376.99 55.8338 2377.9 55.6532C2378.89 55.4727 2380.02 55.1567 2381.28 54.7054C2382.64 54.254 2383.63 53.577 2384.26 52.6742C2384.89 51.7715 2385.21 50.6882 2385.21 49.4244C2385.21 45.3622 2382.27 43.331 2376.41 43.331C2373.16 43.331 2370.81 43.8275 2369.37 44.8205C2367.92 45.8135 2366.97 47.6641 2366.52 50.3723H2341.47C2342.1 34.7551 2353.75 26.9465 2376.41 26.9465C2394.37 26.9465 2405.38 31.2796 2409.45 39.9458C2410.71 42.5637 2411.34 46.8065 2411.34 52.6742C2411.34 55.4727 2411.3 59.6252 2411.21 65.1319C2411.12 70.5482 2411.07 75.1521 2411.07 78.9436C2411.07 88.2417 2412.07 94.8767 2414.05 98.8487ZM2385.34 67.0276C2383.36 68.3817 2379.21 69.7358 2372.89 71.0899C2368.01 72.1731 2365.57 74.6105 2365.57 78.4019C2365.57 80.5685 2366.25 82.2837 2367.61 83.5475C2368.96 84.8113 2370.81 85.4432 2373.16 85.4432C2378.03 85.4432 2381.55 83.6378 2383.72 80.0269C2384.8 78.2214 2385.34 75.2875 2385.34 71.2253V67.0276Z" fill="black"/>
<path d="M2309.19 51.9969V28.9774H2335.86V98.8485H2309.19V72.1729H2289.55V98.8485H2262.88V28.9774H2289.55V51.9969H2309.19Z" fill="black"/>
<path d="M2212.68 49.1534H2190.34V28.9774H2261.57V49.1534H2239.22V98.8485H2212.68V49.1534Z" fill="black"/>
<path d="M2192.6 98.8487H2165.52C2164.89 96.5016 2164.52 94.3351 2164.43 92.3491C2158.57 98.2168 2151.12 101.151 2142.09 101.151C2134.15 101.151 2127.92 99.2098 2123.41 95.3281C2118.98 91.4463 2116.77 86.0751 2116.77 79.2144C2116.77 75.6938 2117.49 72.6245 2118.94 70.0066C2120.38 67.3887 2121.83 65.4027 2123.27 64.0486C2124.8 62.6042 2127.38 61.3404 2130.99 60.2571C2134.6 59.0836 2137.17 58.3614 2138.71 58.0906C2140.24 57.8198 2143.22 57.3684 2147.64 56.7365C2148.37 56.6462 2148.91 56.556 2149.27 56.4657C2149.72 56.3754 2150.8 56.2851 2152.52 56.1949C2154.23 56.0143 2155.54 55.8338 2156.44 55.6532C2157.44 55.4727 2158.57 55.1567 2159.83 54.7054C2161.18 54.254 2162.18 53.577 2162.81 52.6742C2163.44 51.7715 2163.76 50.6882 2163.76 49.4244C2163.76 45.3622 2160.82 43.331 2154.96 43.331C2151.71 43.331 2149.36 43.8275 2147.91 44.8205C2146.47 45.8135 2145.52 47.6641 2145.07 50.3723H2120.02C2120.65 34.7551 2132.3 26.9465 2154.96 26.9465C2172.92 26.9465 2183.93 31.2796 2188 39.9458C2189.26 42.5637 2189.89 46.8065 2189.89 52.6742C2189.89 55.4727 2189.85 59.6252 2189.76 65.1319C2189.67 70.5482 2189.62 75.1521 2189.62 78.9436C2189.62 88.2417 2190.61 94.8767 2192.6 98.8487ZM2163.89 67.0276C2161.91 68.3817 2157.75 69.7358 2151.43 71.0899C2146.56 72.1731 2144.12 74.6105 2144.12 78.4019C2144.12 80.5685 2144.8 82.2837 2146.15 83.5475C2147.51 84.8113 2149.36 85.4432 2151.71 85.4432C2156.58 85.4432 2160.1 83.6378 2162.27 80.0269C2163.35 78.2214 2163.89 75.2875 2163.89 71.2253V67.0276Z" fill="black"/>
<path d="M2119.84 28.9774L2095.2 56.33L2123.23 98.8485H2091.95L2078.27 75.1519L2072.72 81.3807V98.8485H2046.04V28.9774H2072.72V51.9969H2073.12L2090.46 28.9774H2119.84Z" fill="black"/>
<path d="M2004.76 26.9465C2016.04 26.9465 2025.2 30.3318 2032.25 37.1022C2039.29 43.8727 2042.81 52.7194 2042.81 63.6424C2042.81 74.6556 2039.24 83.6378 2032.11 90.5888C2024.98 97.4495 2015.77 100.88 2004.49 100.88C1993.11 100.88 1983.86 97.4495 1976.73 90.5888C1969.6 83.728 1966.03 74.8362 1966.03 63.9132C1966.03 52.9902 1969.6 44.0983 1976.73 37.2376C1983.95 30.3769 1993.29 26.9465 2004.76 26.9465ZM2004.22 46.31C1996.63 46.31 1992.84 52.1777 1992.84 63.9132C1992.84 75.7389 1996.72 81.6518 2004.49 81.6518C2012.16 81.6518 2016 75.6486 2016 63.6424C2016 52.0875 2012.07 46.31 2004.22 46.31Z" fill="black"/>
<path d="M1893.48 55.1114H1893.07L1893.75 98.8485H1868.97V28.9774H1902.42L1915.69 69.7355H1915.82L1928.96 28.9774H1962.54V98.8485H1937.76L1938.43 55.1114H1938.03L1923.67 98.8485H1907.83L1893.48 55.1114Z" fill="black"/>
<path d="M1865.95 98.8487H1838.86C1838.23 96.5016 1837.87 94.3351 1837.78 92.3491C1831.91 98.2168 1824.47 101.151 1815.44 101.151C1807.49 101.151 1801.27 99.2098 1796.75 95.3281C1792.33 91.4463 1790.12 86.0751 1790.12 79.2144C1790.12 75.6938 1790.84 72.6245 1792.28 70.0066C1793.73 67.3887 1795.17 65.4027 1796.62 64.0486C1798.15 62.6042 1800.72 61.3404 1804.33 60.2571C1807.95 59.0836 1810.52 58.3614 1812.05 58.0906C1813.59 57.8198 1816.57 57.3684 1820.99 56.7365C1821.71 56.6462 1822.25 56.556 1822.62 56.4657C1823.07 56.3754 1824.15 56.2851 1825.86 56.1949C1827.58 56.0143 1828.89 55.8338 1829.79 55.6532C1830.78 55.4727 1831.91 55.1567 1833.18 54.7054C1834.53 54.254 1835.52 53.577 1836.16 52.6742C1836.79 51.7715 1837.1 50.6882 1837.1 49.4244C1837.1 45.3622 1834.17 43.331 1828.3 43.331C1825.05 43.331 1822.71 43.8275 1821.26 44.8205C1819.82 45.8135 1818.87 47.6641 1818.42 50.3723H1793.37C1794 34.7551 1805.64 26.9465 1828.3 26.9465C1846.27 26.9465 1857.28 31.2796 1861.34 39.9458C1862.61 42.5637 1863.24 46.8065 1863.24 52.6742C1863.24 55.4727 1863.19 59.6252 1863.1 65.1319C1863.01 70.5482 1862.97 75.1521 1862.97 78.9436C1862.97 88.2417 1863.96 94.8767 1865.95 98.8487ZM1837.24 67.0276C1835.25 68.3817 1831.1 69.7358 1824.78 71.0899C1819.91 72.1731 1817.47 74.6105 1817.47 78.4019C1817.47 80.5685 1818.15 82.2837 1819.5 83.5475C1820.85 84.8113 1822.71 85.4432 1825.05 85.4432C1829.93 85.4432 1833.45 83.6378 1835.61 80.0269C1836.7 78.2214 1837.24 75.2875 1837.24 71.2253V67.0276Z" fill="black"/>
<path d="M1790.82 60.7986C1790.01 73.6174 1785.41 83.5473 1777.01 90.5886C1768.71 97.6299 1758.41 101.151 1746.14 101.151C1731.6 101.151 1719.91 96.3209 1711.07 86.6617C1702.22 77.0026 1697.8 64.906 1697.8 50.3721C1697.8 36.0188 1702.31 24.0577 1711.34 14.4888C1720.46 4.82959 1732.24 0 1746.68 0C1758.41 0 1768.43 3.65604 1776.74 10.9681C1785.14 18.1899 1789.69 27.2172 1790.42 38.0499H1761.71C1760.9 33.7168 1759.14 30.3768 1756.43 28.0297C1753.72 25.6826 1750.29 24.509 1746.14 24.509C1741.8 24.509 1738.15 25.9083 1735.17 28.7067C1732.28 31.4149 1730.29 34.6196 1729.21 38.3207C1728.13 42.0219 1727.59 46.0391 1727.59 50.3721C1727.59 58.4064 1729.21 64.7255 1732.46 69.3294C1735.8 73.9333 1740.36 76.2353 1746.14 76.2353C1754.98 76.2353 1760.18 71.0897 1761.71 60.7986H1790.82Z" fill="black"/>
<path d="M1652.17 71.0898V98.8487H1624.27V71.0898H1652.17Z" fill="black"/>
<path d="M1618.74 98.8485H1592.6V49.1534H1579.33C1579.33 61.5207 1578.61 71.0445 1577.17 77.7246C1575.54 85.7589 1572.65 91.5364 1568.5 95.057C1564.44 98.4874 1558.62 100.203 1551.03 100.203C1549.86 100.203 1548.46 100.022 1546.84 99.6609C1545.3 99.3901 1544.04 99.1193 1543.04 98.8485L1541.55 98.3068V79.2141C1543.27 79.8461 1544.71 80.162 1545.89 80.162C1547.06 80.162 1548.05 79.9363 1548.87 79.485C1549.77 78.9433 1550.49 78.176 1551.03 77.183C1551.67 76.0997 1552.16 75.1067 1552.52 74.204C1552.88 73.211 1553.11 71.9472 1553.2 70.4126C1553.38 68.7877 1553.52 67.5238 1553.61 66.6211C1553.7 65.7184 1553.74 64.4997 1553.74 62.9651C1553.83 61.3402 1553.88 60.3472 1553.88 59.9861C1554.15 53.7573 1554.28 43.421 1554.28 28.9774H1618.74V98.8485Z" fill="black"/>
<path d="M1550.67 28.9774L1525.08 100.473C1522.28 108.327 1518.85 113.789 1514.79 116.858C1510.82 119.927 1504.72 121.462 1496.51 121.462H1479.04V100.067C1480.94 100.157 1483.01 100.203 1485.27 100.203C1486.71 100.203 1487.89 100.157 1488.79 100.067C1489.69 99.9769 1490.73 99.7512 1491.91 99.3901C1493.08 99.1193 1493.98 98.5776 1494.61 97.7652C1495.25 96.8625 1495.56 95.734 1495.56 94.38C1495.56 93.4772 1495.29 92.3488 1494.75 90.9947L1472 28.9774H1500.44L1508.29 56.6009C1509.55 61.1145 1510.68 66.5308 1511.67 72.8499C1513.3 64.5449 1514.56 58.8577 1515.47 55.7884L1523.18 28.9774H1550.67Z" fill="black"/>
</svg>
