<svg width="684" height="316" viewBox="0 0 684 316" fill="none" xmlns="http://www.w3.org/2000/svg">
<rect y="85" width="684" height="127" fill="white"/>
<path d="M646.484 177.585L631.114 206.673H592.11L614.091 174.61C608.141 172.076 603.789 168.385 601.034 163.537C598.39 158.579 597.068 153.676 597.068 148.828C597.068 140.454 600.153 133.788 606.323 128.83C612.603 123.872 621.913 121.393 634.254 121.393H684V206.673H651.442V177.585H646.484ZM651.442 158.744V140.399H642.352C634.639 140.399 630.783 143.429 630.783 149.489C630.783 155.659 634.584 158.744 642.187 158.744H651.442Z" fill="#EF340B"/>
<path d="M565.429 121.393H597.987V206.673H566.751V161.223H566.255L541.465 206.673H508.906V121.393H540.142V165.686H540.638L565.429 121.393Z" fill="#EF340B"/>
<path d="M473.135 149.489V121.393H505.693V206.673H473.135V174.114H449.171V206.673H416.613V121.393H449.171V149.489H473.135Z" fill="#EF340B"/>
<path d="M415.806 181.056C413.272 190.091 407.763 197.032 399.279 201.88C390.905 206.728 381.705 209.152 371.679 209.152C357.796 209.152 346.282 205.24 337.137 197.418C327.992 189.595 323.419 178.797 323.419 165.024C323.419 151.693 327.827 140.73 336.641 132.136C345.566 123.542 356.859 119.245 370.522 119.245C384.845 119.245 396.249 123.707 404.733 132.631C413.327 141.556 417.624 153.566 417.624 168.66V171.14H354.821C355.041 176.538 356.584 180.725 359.448 183.7C362.423 186.675 366.445 188.162 371.513 188.162C377.573 188.162 382.146 185.794 385.231 181.056H415.806ZM385.727 154.778C384.845 145.082 379.832 140.234 370.687 140.234C361.872 140.234 356.639 145.082 354.986 154.778H385.727Z" fill="#EF340B"/>
<path d="M190.059 206.673V121.393H221.956V181.717H241.293V121.393H273.025V181.717H292.361V121.393H324.259V206.673H190.059Z" fill="#EF340B"/>
<path d="M189.417 181.056C186.883 190.091 181.374 197.032 172.89 201.88C164.516 206.728 155.316 209.152 145.29 209.152C131.407 209.152 119.893 205.24 110.748 197.418C101.603 189.595 97.0308 178.797 97.0308 165.024C97.0308 151.693 101.438 140.73 110.252 132.136C119.177 123.542 130.471 119.245 144.133 119.245C158.456 119.245 169.86 123.707 178.344 132.631C186.938 141.556 191.235 153.566 191.235 168.66V171.14H128.432C128.653 176.538 130.195 180.725 133.06 183.7C136.035 186.675 140.056 188.162 145.125 188.162C151.184 188.162 155.757 185.794 158.842 181.056H189.417ZM159.338 154.778C158.456 145.082 153.443 140.234 144.298 140.234C135.484 140.234 130.25 145.082 128.597 154.778H159.338Z" fill="#EF340B"/>
<path d="M0 89H51.2339C85.5001 89 102.633 102.938 102.633 130.813C102.633 143.815 98.5565 153.676 90.4031 160.397C82.3599 167.008 71.6724 170.313 58.3406 170.313H35.8637V206.673H0V89ZM35.8637 117.922V142.878H53.2172C63.1334 142.878 68.0915 138.746 68.0915 130.483C68.0915 122.109 62.9131 117.922 52.5561 117.922H35.8637Z" fill="#EF340B"/>
<rect y="212" width="684" height="104" fill="#222222"/>
<path d="M684 294.694H662.127V253.1H651.02C651.02 263.451 650.415 271.423 649.206 277.014C647.846 283.738 645.429 288.574 641.953 291.52C638.553 294.392 633.68 295.827 627.333 295.827C626.351 295.827 625.18 295.676 623.82 295.374C622.535 295.147 621.477 294.921 620.646 294.694L619.4 294.241V278.26C620.835 278.789 622.044 279.054 623.026 279.054C624.009 279.054 624.84 278.865 625.52 278.487C626.275 278.034 626.88 277.392 627.333 276.56C627.862 275.654 628.278 274.823 628.58 274.067C628.882 273.236 629.071 272.178 629.146 270.894C629.298 269.534 629.411 268.476 629.486 267.72C629.562 266.965 629.6 265.945 629.6 264.66C629.675 263.3 629.713 262.469 629.713 262.167C629.94 256.954 630.053 248.302 630.053 236.214H684V294.694Z" fill="#EF340B"/>
<path d="M622.813 294.694H600.94V253.1H589.833C589.833 263.451 589.228 271.423 588.019 277.014C586.659 283.738 584.242 288.574 580.766 291.52C577.366 294.392 572.493 295.827 566.146 295.827C565.164 295.827 563.993 295.676 562.633 295.374C561.348 295.147 560.29 294.921 559.459 294.694L558.213 294.241V278.26C559.648 278.789 560.857 279.054 561.839 279.054C562.822 279.054 563.653 278.865 564.333 278.487C565.088 278.034 565.693 277.392 566.146 276.56C566.675 275.654 567.09 274.823 567.393 274.067C567.695 273.236 567.884 272.178 567.959 270.894C568.111 269.534 568.224 268.476 568.299 267.72C568.375 266.965 568.413 265.945 568.413 264.66C568.488 263.3 568.526 262.469 568.526 262.167C568.753 256.954 568.866 248.302 568.866 236.214H622.813V294.694Z" fill="#EF340B"/>
<path d="M564.749 294.694H542.082C541.553 292.729 541.251 290.916 541.175 289.254C536.264 294.165 530.031 296.62 522.475 296.62C515.826 296.62 510.613 294.996 506.835 291.747C503.133 288.498 501.282 284.003 501.282 278.26C501.282 275.314 501.886 272.745 503.095 270.554C504.304 268.363 505.513 266.7 506.722 265.567C508.006 264.358 510.16 263.3 513.182 262.394C516.204 261.411 518.357 260.807 519.642 260.58C520.926 260.354 523.42 259.976 527.122 259.447C527.726 259.371 528.18 259.296 528.482 259.22C528.86 259.145 529.766 259.069 531.202 258.994C532.637 258.842 533.733 258.691 534.489 258.54C535.32 258.389 536.264 258.125 537.322 257.747C538.455 257.369 539.286 256.802 539.815 256.047C540.344 255.291 540.609 254.385 540.609 253.327C540.609 249.927 538.153 248.227 533.242 248.227C530.522 248.227 528.557 248.642 527.349 249.474C526.14 250.305 525.346 251.854 524.969 254.12H504.002C504.531 241.049 514.277 234.513 533.242 234.513C548.278 234.513 557.495 238.14 560.895 245.393C561.953 247.585 562.482 251.136 562.482 256.047C562.482 258.389 562.444 261.865 562.369 266.474C562.293 271.007 562.255 274.86 562.255 278.034C562.255 285.816 563.087 291.369 564.749 294.694ZM540.722 268.06C539.06 269.194 535.584 270.327 530.295 271.46C526.215 272.367 524.175 274.407 524.175 277.58C524.175 279.394 524.742 280.829 525.875 281.887C527.009 282.945 528.557 283.474 530.522 283.474C534.602 283.474 537.549 281.963 539.362 278.94C540.269 277.429 540.722 274.974 540.722 271.574V268.06Z" fill="#EF340B"/>
<path d="M468.292 253.1H449.592V236.214H509.205V253.1H490.505V294.694H468.292V253.1Z" fill="#EF340B"/>
<path d="M457.1 271.234C456.042 279.092 452.793 285.212 447.353 289.594C441.989 293.976 435.038 296.167 426.5 296.167C417.055 296.167 409.349 293.372 403.38 287.78C397.486 282.189 394.54 274.898 394.54 265.907C394.54 256.614 397.486 249.134 403.38 243.467C409.273 237.725 417.017 234.854 426.613 234.854C435.075 234.854 442.026 237.007 447.467 241.314C452.982 245.62 456.042 251.287 456.647 258.314H435.226C434.924 255.971 433.98 254.12 432.393 252.76C430.882 251.4 429.031 250.72 426.84 250.72C420.266 250.72 416.98 255.82 416.98 266.02C416.98 275.238 420.229 279.847 426.726 279.847C431.789 279.847 434.773 276.976 435.68 271.234H457.1Z" fill="#EF340B"/>
<path d="M372.503 236.214H394.83V294.694H373.41V263.527H373.07L356.07 294.694H333.743V236.214H355.163V266.587H355.503L372.503 236.214Z" fill="#EF340B"/>
<path d="M291.987 236.213V242.56C295.991 237.347 301.582 234.74 308.76 234.74C316.391 234.74 322.511 237.611 327.12 243.354C331.805 249.02 334.147 256.538 334.147 265.907C334.147 275.125 331.918 282.492 327.46 288.007C323.002 293.447 317.033 296.167 309.553 296.167C303.056 296.167 297.464 293.598 292.78 288.46V313.507H270.453V236.213H291.987ZM301.847 252.647C295.349 252.647 292.1 257.105 292.1 266.02C292.1 274.785 295.387 279.167 301.96 279.167C308.458 279.167 311.707 274.747 311.707 265.907C311.707 257.067 308.42 252.647 301.847 252.647Z" fill="#EF340B"/>
<path d="M270.87 214L241.63 245.394L275.517 294.694H244.577L224.857 263.3L217.603 270.894V294.694H193.236V214H217.716L217.603 230.32C217.603 231.529 217.49 235.647 217.263 242.674L240.27 214H270.87Z" fill="#EF340B"/>
<path d="M165.208 214L135.968 245.394L169.855 294.694H138.915L119.195 263.3L111.941 270.894V294.694H87.5745V214H112.055L111.941 230.32C111.941 231.529 111.828 235.647 111.601 242.674L134.608 214H165.208Z" fill="#EF340B"/>
<path d="M17.9068 214H79.7871V274.067H89.7605V313.507H67.3204V294.694H22.5535V313.507H0V274.067H8.27338C11.3712 268.249 13.7512 260.618 15.4134 251.174C17.0757 241.729 17.9068 231.756 17.9068 221.253V214ZM55.5337 274.067V234.287H40.2336V241.087C40.2336 245.771 39.4402 251.627 37.8536 258.654C36.2669 265.605 34.6047 270.743 32.8669 274.067H55.5337Z" fill="#EF340B"/>
<rect width="684" height="86" fill="#EF340B"/>
<path d="M682.73 66.3707C680.961 72.6807 677.113 77.5287 671.188 80.9146C665.339 84.3004 658.914 85.9934 651.911 85.9934C642.215 85.9934 634.174 83.2616 627.787 77.798C621.4 72.3345 618.207 64.7932 618.207 55.1743C618.207 45.8631 621.285 38.2064 627.441 32.2042C633.674 26.202 641.561 23.2009 651.103 23.2009C661.107 23.2009 669.072 26.3174 674.997 32.5505C680.999 38.7836 684 47.1713 684 57.7137V59.4451H640.138C640.292 63.2157 641.369 66.1399 643.37 68.2175C645.447 70.2952 648.256 71.3341 651.796 71.3341C656.028 71.3341 659.222 69.6796 661.376 66.3707H682.73ZM661.723 48.0178C661.107 41.246 657.606 37.8601 651.219 37.8601C645.063 37.8601 641.407 41.246 640.253 48.0178H661.723Z" fill="white"/>
<path d="M619.068 84.2619H596.906V24.7014H619.068V84.2619ZM590.788 63.3696C590.788 69.9105 588.749 75.0278 584.67 78.7214C580.592 82.4151 574.551 84.2619 566.548 84.2619H532.613V24.7014H554.775V43.2852H567.125C575.128 43.2852 581.054 45.0551 584.901 48.5949C588.826 52.0577 590.788 56.9826 590.788 63.3696ZM560.431 70.4107C565.509 70.4107 568.049 68.2175 568.049 63.8313C568.049 59.4451 565.509 57.2519 560.431 57.2519H554.775V70.4107H560.431Z" fill="white"/>
<path d="M507.976 44.3241V24.7014H530.715V84.2619H507.976V61.5228H491.239V84.2619H468.5V24.7014H491.239V44.3241H507.976Z" fill="white"/>
<path d="M470.045 63.3696C470.045 69.9105 468.006 75.0278 463.928 78.7214C459.849 82.4151 453.809 84.2619 445.806 84.2619H409.562V24.7014H432.301V43.2852H446.383C454.386 43.2852 460.311 45.0551 464.159 48.5949C468.083 52.0577 470.045 56.9826 470.045 63.3696ZM439.111 70.4107C444.19 70.4107 446.729 68.2175 446.729 63.8313C446.729 59.4451 444.19 57.2519 439.111 57.2519H432.301V70.4107H439.111Z" fill="white"/>
<path d="M407.267 84.2619H384.989V41.9001H373.677C373.677 52.4425 373.062 60.5609 371.83 66.2553C370.445 73.104 367.983 78.0289 364.443 81.03C360.98 83.9541 356.017 85.4162 349.553 85.4162C348.552 85.4162 347.36 85.2623 345.975 84.9545C344.666 84.7237 343.589 84.4928 342.743 84.2619L341.473 83.8002V67.525C342.935 68.0636 344.166 68.333 345.167 68.333C346.167 68.333 347.013 68.1406 347.706 67.7558C348.476 67.2941 349.091 66.64 349.553 65.7936C350.091 64.8701 350.515 64.0237 350.823 63.2542C351.13 62.4077 351.323 61.3304 351.4 60.0222C351.554 58.6371 351.669 57.5597 351.746 56.7902C351.823 56.0207 351.861 54.9819 351.861 53.6737C351.938 52.2886 351.977 51.4421 351.977 51.1343C352.208 45.8246 352.323 37.0137 352.323 24.7014H407.267V84.2619Z" fill="white"/>
<path d="M316.637 22.97C326.256 22.97 334.067 25.8557 340.069 31.6271C346.071 37.3985 349.072 44.9397 349.072 54.2508C349.072 63.6389 346.033 71.2956 339.954 77.2209C333.874 83.0692 326.025 85.9934 316.406 85.9934C306.71 85.9934 298.823 83.0692 292.744 77.2209C286.665 71.3726 283.625 63.7928 283.625 54.4817C283.625 45.1706 286.665 37.5908 292.744 31.7425C298.9 25.8942 306.864 22.97 316.637 22.97ZM316.176 39.4761C309.712 39.4761 306.48 44.478 306.48 54.4817C306.48 64.5624 309.789 69.6027 316.406 69.6027C322.947 69.6027 326.218 64.4854 326.218 54.2508C326.218 44.401 322.87 39.4761 316.176 39.4761Z" fill="white"/>
<path d="M246.326 37.3984V47.3252H255.214C259.6 47.3252 261.793 45.5938 261.793 42.131C261.793 38.9759 259.715 37.3984 255.56 37.3984H246.326ZM262.139 84.2619H224.164V24.7014H260.408C268.795 24.7014 274.913 25.8942 278.761 28.2797C282.685 30.5882 284.648 34.3204 284.648 39.4761C284.648 45.4783 281.762 49.6722 275.99 52.0577V52.2886C279.069 52.9042 281.646 54.4817 283.724 57.0211C285.879 59.5605 286.956 62.5231 286.956 65.909C286.956 78.1443 278.684 84.2619 262.139 84.2619ZM256.137 71.2186C258.061 71.2186 259.638 70.68 260.869 69.6027C262.178 68.5253 262.832 67.0248 262.832 65.101C262.832 61.3304 260.254 59.4451 255.098 59.4451H246.326V71.2186H256.137Z" fill="white"/>
<path d="M164.164 46.9789H163.818L164.395 84.2619H143.272V24.7014H171.782L183.094 59.4451H183.209L194.406 24.7014H223.032V84.2619H201.909L202.486 46.9789H202.14L189.904 84.2619H176.399L164.164 46.9789Z" fill="white"/>
<path d="M118.404 24.7014H141.143V84.2619H119.328V52.5194H118.981L101.667 84.2619H78.928V24.7014H100.744V55.636H101.09L118.404 24.7014Z" fill="white"/>
<path d="M79.2986 51.8269C78.606 62.754 74.6815 71.2187 67.525 77.2209C60.4455 83.2231 51.673 86.2242 41.2076 86.2242C28.8184 86.2242 18.8531 82.1073 11.3119 73.8735C3.77063 65.6397 0 55.3282 0 42.939C0 30.7037 3.84758 20.5076 11.5427 12.3507C19.3148 4.11691 29.357 0 41.6693 0C51.673 0 60.2146 3.11654 67.2942 9.34961C74.4507 15.5057 78.3367 23.2009 78.9523 32.4351H54.4817C53.7892 28.7414 52.2886 25.8942 49.98 23.8935C47.6715 21.8927 44.7473 20.8924 41.2076 20.8924C37.5139 20.8924 34.3974 22.0851 31.858 24.4706C29.3955 26.7791 27.7026 29.5109 26.7792 32.6659C25.8557 35.821 25.394 39.2453 25.394 42.939C25.394 49.7877 26.7792 55.1743 29.5494 59.0988C32.3966 63.0233 36.2827 64.9856 41.2076 64.9856C48.7488 64.9856 53.1735 60.5994 54.4817 51.8269H79.2986Z" fill="white"/>
</svg>
