<svg width="2909" height="227" viewBox="0 0 2909 227" fill="none" xmlns="http://www.w3.org/2000/svg">
<rect width="2909" height="227" fill="#EF340B"/>
<path d="M1317.93 115.184L1287.58 172.613H1210.58L1253.97 109.31C1242.23 104.307 1233.64 97.0197 1228.2 87.4482C1222.98 77.6592 1220.37 67.9789 1220.37 58.4074C1220.37 41.8748 1226.46 28.714 1238.64 18.925C1251.04 9.13597 1269.42 4.24146 1293.78 4.24146H1392V172.613H1327.72V115.184H1317.93ZM1327.72 77.9855V41.7661H1309.77C1294.54 41.7661 1286.93 47.7482 1286.93 59.7126C1286.93 71.8945 1294.44 77.9855 1309.45 77.9855H1327.72Z" fill="#222222"/>
<path d="M1148.11 4.24146H1212.39V172.613H1150.72V82.88H1149.74L1100.8 172.613H1036.52V4.24146H1098.19V91.6901H1099.17L1148.11 4.24146Z" fill="#222222"/>
<path d="M956.103 59.7126V4.24146H1020.38V172.613H956.103V108.331H908.789V172.613H844.508V4.24146H908.789V59.7126H956.103Z" fill="#222222"/>
<path d="M833.125 122.037C828.122 139.874 817.245 153.579 800.495 163.15C783.963 172.722 765.799 177.508 746.003 177.508C718.594 177.508 695.861 169.785 677.806 154.34C659.751 138.895 650.723 117.577 650.723 90.3854C650.723 64.0638 659.425 42.4191 676.827 25.4515C694.447 8.48383 716.745 0 743.719 0C771.998 0 794.513 8.81013 811.263 26.4304C828.231 44.0506 836.715 67.7618 836.715 97.564V102.459H712.72C713.155 113.118 716.201 121.384 721.857 127.257C727.73 133.131 735.67 136.068 745.677 136.068C757.641 136.068 766.669 131.391 772.76 122.037H833.125ZM773.739 70.1547C771.998 51.0117 762.101 41.4402 744.045 41.4402C726.643 41.4402 716.31 51.0117 713.047 70.1547H773.739Z" fill="#222222"/>
<path d="M377.635 172.613V4.24146H440.611V123.341H478.788V4.24146H541.438V123.341H579.615V4.24146H642.591V172.613H377.635Z" fill="#222222"/>
<path d="M366.579 122.037C361.575 139.874 350.699 153.579 333.949 163.15C317.416 172.722 299.252 177.508 279.456 177.508C252.047 177.508 229.315 169.785 211.259 154.34C193.204 138.895 184.177 117.577 184.177 90.3854C184.177 64.0638 192.878 42.4191 210.281 25.4515C227.901 8.48383 250.198 0 277.172 0C305.452 0 327.966 8.81013 344.717 26.4304C361.684 44.0506 370.168 67.7618 370.168 97.564V102.459H246.174C246.609 113.118 249.654 121.384 255.31 127.257C261.184 133.131 269.124 136.068 279.13 136.068C291.094 136.068 300.122 131.391 306.213 122.037H366.579ZM307.192 70.1547C305.452 51.0117 295.554 41.4402 277.499 41.4402C260.096 41.4402 249.763 51.0117 246.5 70.1547H307.192Z" fill="#222222"/>
<path d="M61.9972 4.24192V22.5148C73.5265 7.50493 89.624 0 110.29 0C132.261 0 149.881 8.2663 163.15 24.7989C176.638 41.1139 183.381 62.7586 183.381 89.7328C183.381 116.272 176.964 137.481 164.129 153.361C151.295 169.024 134.11 176.855 112.574 176.855C93.8659 176.855 77.7684 169.459 64.2813 154.667V226.779H0V4.24192H61.9972ZM90.3854 51.5556C71.6774 51.5556 62.3235 64.3901 62.3235 90.0591C62.3235 115.293 71.7862 127.91 90.7117 127.91C109.42 127.91 118.774 115.184 118.774 89.7328C118.774 64.2813 109.311 51.5556 90.3854 51.5556Z" fill="#222222"/>
<path d="M2770.93 115.184L2740.58 172.613H2663.58L2706.97 109.31C2695.23 104.307 2686.64 97.0197 2681.2 87.4482C2675.98 77.6592 2673.37 67.9789 2673.37 58.4074C2673.37 41.8748 2679.46 28.714 2691.64 18.925C2704.04 9.13597 2722.42 4.24146 2746.78 4.24146H2845V172.613H2780.72V115.184H2770.93ZM2780.72 77.9855V41.7661H2762.77C2747.54 41.7661 2739.93 47.7482 2739.93 59.7126C2739.93 71.8945 2747.44 77.9855 2762.45 77.9855H2780.72Z" fill="#222222"/>
<path d="M2601.11 4.24146H2665.39V172.613H2603.72V82.88H2602.74L2553.8 172.613H2489.52V4.24146H2551.19V91.6901H2552.17L2601.11 4.24146Z" fill="#222222"/>
<path d="M2409.1 59.7126V4.24146H2473.38V172.613H2409.1V108.331H2361.79V172.613H2297.51V4.24146H2361.79V59.7126H2409.1Z" fill="#222222"/>
<path d="M2286.13 122.037C2281.12 139.874 2270.25 153.579 2253.5 163.15C2236.96 172.722 2218.8 177.508 2199 177.508C2171.59 177.508 2148.86 169.785 2130.81 154.34C2112.75 138.895 2103.72 117.577 2103.72 90.3854C2103.72 64.0638 2112.42 42.4191 2129.83 25.4515C2147.45 8.48383 2169.74 0 2196.72 0C2225 0 2247.51 8.81013 2264.26 26.4304C2281.23 44.0506 2289.71 67.7618 2289.71 97.564V102.459H2165.72C2166.16 113.118 2169.2 121.384 2174.86 127.257C2180.73 133.131 2188.67 136.068 2198.68 136.068C2210.64 136.068 2219.67 131.391 2225.76 122.037H2286.13ZM2226.74 70.1547C2225 51.0117 2215.1 41.4402 2197.05 41.4402C2179.64 41.4402 2169.31 51.0117 2166.05 70.1547H2226.74Z" fill="#222222"/>
<path d="M1830.63 172.613V4.24146H1893.61V123.341H1931.79V4.24146H1994.44V123.341H2032.62V4.24146H2095.59V172.613H1830.63Z" fill="#222222"/>
<path d="M1819.58 122.037C1814.58 139.874 1803.7 153.579 1786.95 163.15C1770.42 172.722 1752.25 177.508 1732.46 177.508C1705.05 177.508 1682.31 169.785 1664.26 154.34C1646.2 138.895 1637.18 117.577 1637.18 90.3854C1637.18 64.0638 1645.88 42.4191 1663.28 25.4515C1680.9 8.48383 1703.2 0 1730.17 0C1758.45 0 1780.97 8.81013 1797.72 26.4304C1814.68 44.0506 1823.17 67.7618 1823.17 97.564V102.459H1699.17C1699.61 113.118 1702.65 121.384 1708.31 127.257C1714.18 133.131 1722.12 136.068 1732.13 136.068C1744.09 136.068 1753.12 131.391 1759.21 122.037H1819.58ZM1760.19 70.1547C1758.45 51.0117 1748.55 41.4402 1730.5 41.4402C1713.1 41.4402 1702.76 51.0117 1699.5 70.1547H1760.19Z" fill="#222222"/>
<path d="M1515 4.24192V22.5148C1526.53 7.50493 1542.62 0 1563.29 0C1585.26 0 1602.88 8.2663 1616.15 24.7989C1629.64 41.1139 1636.38 62.7586 1636.38 89.7328C1636.38 116.272 1629.96 137.481 1617.13 153.361C1604.29 169.024 1587.11 176.855 1565.57 176.855C1546.87 176.855 1530.77 169.459 1517.28 154.667V226.779H1453V4.24192H1515ZM1543.39 51.5556C1524.68 51.5556 1515.32 64.3901 1515.32 90.0591C1515.32 115.293 1524.79 127.91 1543.71 127.91C1562.42 127.91 1571.77 115.184 1571.77 89.7328C1571.77 64.2813 1562.31 51.5556 1543.39 51.5556Z" fill="#222222"/>
</svg>
