<svg width="1360" height="316" viewBox="0 0 1360 316" fill="none" xmlns="http://www.w3.org/2000/svg">
<path d="M135.44 26.6352V116.967L53.6509 85.1704L34.1085 140.815L118.069 168.998L64.5084 239.82L113.002 275.231L163.668 200.796L217.228 275.231L264.999 239.82L211.438 168.998L296.845 140.815L277.303 85.1704L193.343 116.967V26.6352H135.44ZM220.012 78.3814L293.417 50.5825L331 157.597L255.162 182.622L302.487 245.199L211.376 312.739L164.274 247.28L119.541 313L26.9012 245.354L74.4647 182.462L0 157.466L37.6167 50.3552L108.771 78.0173V0H220.012V78.3814Z" fill="white"/>
<path d="M815.44 26.6352V116.967L733.651 85.1704L714.109 140.815L798.069 168.998L744.508 239.82L793.002 275.231L843.668 200.796L897.228 275.231L944.999 239.82L891.438 168.998L976.845 140.815L957.303 85.1704L873.343 116.967V26.6352H815.44ZM900.012 78.3814L973.417 50.5825L1011 157.597L935.162 182.622L982.487 245.199L891.376 312.739L844.274 247.28L799.541 313L706.901 245.354L754.465 182.462L680 157.466L717.617 50.3552L788.771 78.0173V0H900.012V78.3814Z" fill="white"/>
<path d="M418.334 13.4452V59.0442L377.069 42.9934L367.209 71.0825L409.569 85.309L382.547 121.06L407.013 138.934L432.576 101.36L459.598 138.934L483.7 121.06L456.677 85.309L499.768 71.0825L489.908 42.9934L447.548 59.0442V13.4452H418.334ZM461.003 39.5664L498.038 25.5337L517 79.5536L478.737 92.1862L502.614 123.774L456.646 157.868L432.881 124.825L410.312 158L363.573 123.853L387.57 92.1056L350 79.4876L368.979 25.4189L404.878 39.3825V0H461.003V39.5664Z" fill="white"/>
<path d="M418.334 171.445V217.044L377.069 200.993L367.209 229.083L409.569 243.309L382.547 279.06L407.013 296.934L432.576 259.36L459.598 296.934L483.7 279.06L456.677 243.309L499.768 229.083L489.908 200.993L447.548 217.044V171.445H418.334ZM461.003 197.566L498.038 183.534L517 237.554L478.737 250.186L502.614 281.774L456.646 315.868L432.881 282.825L410.312 316L363.573 281.853L387.57 250.106L350 237.488L368.979 183.419L404.878 197.383V158H461.003V197.566Z" fill="white"/>
<path d="M1098.33 13.4452V59.0442L1057.07 42.9934L1047.21 71.0825L1089.57 85.309L1062.55 121.06L1087.01 138.934L1112.58 101.36L1139.6 138.934L1163.7 121.06L1136.68 85.309L1179.77 71.0825L1169.91 42.9934L1127.55 59.0442V13.4452H1098.33ZM1141 39.5664L1178.04 25.5337L1197 79.5536L1158.74 92.1862L1182.61 123.774L1136.65 157.868L1112.88 124.825L1090.31 158L1043.57 123.853L1067.57 92.1056L1030 79.4876L1048.98 25.4189L1084.88 39.3825V0H1141V39.5664Z" fill="white"/>
<path d="M1098.33 171.445V217.044L1057.07 200.993L1047.21 229.083L1089.57 243.309L1062.55 279.06L1087.01 296.934L1112.58 259.36L1139.6 296.934L1163.7 279.06L1136.68 243.309L1179.77 229.083L1169.91 200.993L1127.55 217.044V171.445H1098.33ZM1141 197.566L1178.04 183.534L1197 237.554L1158.74 250.186L1182.61 281.774L1136.65 315.868L1112.88 282.825L1090.31 316L1043.57 281.853L1067.57 250.106L1030 237.488L1048.98 183.419L1084.88 197.383V158H1141V197.566Z" fill="white"/>
<path d="M569.962 6.72262V29.5221L549.453 21.4967L544.553 35.5413L565.606 42.6545L552.176 60.5298L564.336 69.4672L577.041 50.6802L590.471 69.4672L602.45 60.5298L589.019 42.6545L610.435 35.5413L605.535 21.4967L584.482 29.5221V6.72262H569.962ZM591.169 19.7832L609.576 12.7668L619 39.7768L599.983 46.0931L611.85 61.8872L589.004 78.934L577.192 62.4126L565.975 79L542.746 61.9265L554.672 46.0528L536 39.7438L545.433 12.7095L563.275 19.6913V0H591.169V19.7832Z" fill="white"/>
<path d="M569.962 163.723V186.522L549.453 178.497L544.553 192.541L565.606 199.655L552.176 217.53L564.336 226.467L577.041 207.68L590.471 226.467L602.45 217.53L589.019 199.655L610.435 192.541L605.535 178.497L584.482 186.522V163.723H569.962ZM591.169 176.783L609.576 169.767L619 196.777L599.983 203.093L611.85 218.887L589.004 235.934L577.192 219.413L565.975 236L542.746 218.926L554.672 203.053L536 196.744L545.433 169.709L563.275 176.691V157H591.169V176.783Z" fill="white"/>
<path d="M569.962 85.6375V108.148L549.453 100.225L544.553 114.091L565.606 121.115L552.176 138.764L564.336 147.588L577.041 129.039L590.471 147.588L602.45 138.764L589.019 121.115L610.435 114.091L605.535 100.225L584.482 108.148V85.6375H569.962ZM591.169 98.5328L609.576 91.6052L619 118.273L599.983 124.51L611.85 140.104L589.004 156.935L577.192 140.623L565.975 157L542.746 140.143L554.672 124.47L536 118.241L545.433 91.5486L563.275 98.442V79H591.169V98.5328Z" fill="white"/>
<path d="M569.962 242.638V265.148L549.453 257.225L544.553 271.091L565.606 278.115L552.176 295.764L564.336 304.588L577.041 286.039L590.471 304.588L602.45 295.764L589.019 278.115L610.435 271.091L605.535 257.225L584.482 265.148V242.638H569.962ZM591.169 255.533L609.576 248.605L619 275.273L599.983 281.51L611.85 297.104L589.004 313.935L577.192 297.623L565.975 314L542.746 297.143L554.672 281.47L536 275.241L545.433 248.549L563.275 255.442V236H591.169V255.533Z" fill="white"/>
<path d="M1249.96 6.72262V29.5221L1229.45 21.4967L1224.55 35.5413L1245.61 42.6545L1232.18 60.5298L1244.34 69.4672L1257.04 50.6802L1270.47 69.4672L1282.45 60.5298L1269.02 42.6545L1290.44 35.5413L1285.54 21.4967L1264.48 29.5221V6.72262H1249.96ZM1271.17 19.7832L1289.58 12.7668L1299 39.7768L1279.98 46.0931L1291.85 61.8872L1269 78.934L1257.19 62.4126L1245.98 79L1222.75 61.9265L1234.67 46.0528L1216 39.7438L1225.43 12.7095L1243.27 19.6913V0H1271.17V19.7832Z" fill="white"/>
<path d="M1249.96 163.723V186.522L1229.45 178.497L1224.55 192.541L1245.61 199.655L1232.18 217.53L1244.34 226.467L1257.04 207.68L1270.47 226.467L1282.45 217.53L1269.02 199.655L1290.44 192.541L1285.54 178.497L1264.48 186.522V163.723H1249.96ZM1271.17 176.783L1289.58 169.767L1299 196.777L1279.98 203.093L1291.85 218.887L1269 235.934L1257.19 219.413L1245.98 236L1222.75 218.926L1234.67 203.053L1216 196.744L1225.43 169.709L1243.27 176.691V157H1271.17V176.783Z" fill="white"/>
<path d="M1249.96 85.6375V108.148L1229.45 100.225L1224.55 114.091L1245.61 121.115L1232.18 138.764L1244.34 147.588L1257.04 129.039L1270.47 147.588L1282.45 138.764L1269.02 121.115L1290.44 114.091L1285.54 100.225L1264.48 108.148V85.6375H1249.96ZM1271.17 98.5328L1289.58 91.6052L1299 118.273L1279.98 124.51L1291.85 140.104L1269 156.935L1257.19 140.623L1245.98 157L1222.75 140.143L1234.67 124.47L1216 118.241L1225.43 91.5486L1243.27 98.442V79H1271.17V98.5328Z" fill="white"/>
<path d="M1249.96 242.638V265.148L1229.45 257.225L1224.55 271.091L1245.61 278.115L1232.18 295.764L1244.34 304.588L1257.04 286.039L1270.47 304.588L1282.45 295.764L1269.02 278.115L1290.44 271.091L1285.54 257.225L1264.48 265.148V242.638H1249.96ZM1271.17 255.533L1289.58 248.605L1299 275.273L1279.98 281.51L1291.85 297.104L1269 313.935L1257.19 297.623L1245.98 314L1222.75 297.143L1234.67 281.47L1216 275.241L1225.43 248.549L1243.27 255.442V236H1271.17V255.533Z" fill="white"/>
<path d="M655.186 3.40386V14.9479L644.808 10.8844L642.328 17.9956L652.982 21.5972L646.185 30.648L652.339 35.1733L658.768 25.6609L665.564 35.1733L671.625 30.648L664.829 21.5972L675.666 17.9956L673.187 10.8844L662.533 14.9479V3.40386H655.186ZM665.917 10.0168L675.231 6.46422L680 20.1401L670.377 23.3383L676.382 31.3353L664.821 39.9666L658.844 31.6013L653.168 40L641.413 31.3552L647.449 23.3179L638 20.1234L642.773 6.43517L651.802 9.97026V0H665.917V10.0168Z" fill="white"/>
<path d="M655.186 160.404V171.948L644.808 167.884L642.328 174.996L652.982 178.597L646.185 187.648L652.339 192.173L658.768 182.661L665.564 192.173L671.625 187.648L664.829 178.597L675.666 174.996L673.187 167.884L662.533 171.948V160.404H655.186ZM665.917 167.017L675.231 163.464L680 177.14L670.377 180.338L676.382 188.335L664.821 196.967L658.844 188.601L653.168 197L641.413 188.355L647.449 180.318L638 177.123L642.773 163.435L651.802 166.97V157H665.917V167.017Z" fill="white"/>
<path d="M655.186 82.3188V93.5742L644.808 89.6123L642.328 96.5457L652.982 100.057L646.185 108.882L652.339 113.294L658.768 104.019L665.564 113.294L671.625 108.882L664.829 100.057L675.666 96.5457L673.187 89.6123L662.533 93.5742V82.3188H655.186ZM665.917 88.7664L675.231 85.3026L680 98.6366L670.377 101.755L676.382 109.552L664.821 117.967L658.844 109.811L653.168 118L641.413 109.571L647.449 101.735L638 98.6203L642.773 85.2743L651.802 88.721V79H665.917V88.7664Z" fill="white"/>
<path d="M655.186 239.319V250.574L644.808 246.612L642.328 253.546L652.982 257.057L646.185 265.882L652.339 270.294L658.768 261.019L665.564 270.294L671.625 265.882L664.829 257.057L675.666 253.546L673.187 246.612L662.533 250.574V239.319H655.186ZM665.917 245.766L675.231 242.303L680 255.637L670.377 258.755L676.382 266.552L664.821 274.967L658.844 266.811L653.168 275L641.413 266.571L647.449 258.735L638 255.62L642.773 242.274L651.802 245.721V236H665.917V245.766Z" fill="white"/>
<path d="M655.186 43.3188V54.5742L644.808 50.6123L642.328 57.5457L652.982 61.0573L646.185 69.8818L652.339 74.2939L658.768 65.0194L665.564 74.2939L671.625 69.8818L664.829 61.0573L675.666 57.5457L673.187 50.6123L662.533 54.5742V43.3188H655.186ZM665.917 49.7664L675.231 46.3026L680 59.6366L670.377 62.7548L676.382 70.5519L664.821 78.9674L658.844 70.8113L653.168 79L641.413 70.5713L647.449 62.7349L638 59.6203L642.773 46.2743L651.802 49.721V40H665.917V49.7664Z" fill="white"/>
<path d="M655.186 200.319V211.574L644.808 207.612L642.328 214.546L652.982 218.057L646.185 226.882L652.339 231.294L658.768 222.019L665.564 231.294L671.625 226.882L664.829 218.057L675.666 214.546L673.187 207.612L662.533 211.574V200.319H655.186ZM665.917 206.766L675.231 203.303L680 216.637L670.377 219.755L676.382 227.552L664.821 235.967L658.844 227.811L653.168 236L641.413 227.571L647.449 219.735L638 216.62L642.773 203.274L651.802 206.721V197H665.917V206.766Z" fill="white"/>
<path d="M655.186 121.319V132.574L644.808 128.612L642.328 135.546L652.982 139.057L646.185 147.882L652.339 152.294L658.768 143.019L665.564 152.294L671.625 147.882L664.829 139.057L675.666 135.546L673.187 128.612L662.533 132.574V121.319H655.186ZM665.917 127.766L675.231 124.303L680 137.637L670.377 140.755L676.382 148.552L664.821 156.967L658.844 148.811L653.168 157L641.413 148.571L647.449 140.735L638 137.62L642.773 124.274L651.802 127.721V118H665.917V127.766Z" fill="white"/>
<path d="M655.186 278.319V289.574L644.808 285.612L642.328 292.546L652.982 296.057L646.185 304.882L652.339 309.294L658.768 300.019L665.564 309.294L671.625 304.882L664.829 296.057L675.666 292.546L673.187 285.612L662.533 289.574V278.319H655.186ZM665.917 284.766L675.231 281.303L680 294.637L670.377 297.755L676.382 305.552L664.821 313.967L658.844 305.811L653.168 314L641.413 305.571L647.449 297.735L638 294.62L642.773 281.274L651.802 284.721V275H665.917V284.766Z" fill="white"/>
<path d="M1335.19 3.40386V14.9479L1324.81 10.8844L1322.33 17.9956L1332.98 21.5972L1326.19 30.648L1332.34 35.1733L1338.77 25.6609L1345.56 35.1733L1351.63 30.648L1344.83 21.5972L1355.67 17.9956L1353.19 10.8844L1342.53 14.9479V3.40386H1335.19ZM1345.92 10.0168L1355.23 6.46422L1360 20.1401L1350.38 23.3383L1356.38 31.3353L1344.82 39.9666L1338.84 31.6013L1333.17 40L1321.41 31.3552L1327.45 23.3179L1318 20.1234L1322.77 6.43517L1331.8 9.97026V0H1345.92V10.0168Z" fill="white"/>
<path d="M1335.19 160.404V171.948L1324.81 167.884L1322.33 174.996L1332.98 178.597L1326.19 187.648L1332.34 192.173L1338.77 182.661L1345.56 192.173L1351.63 187.648L1344.83 178.597L1355.67 174.996L1353.19 167.884L1342.53 171.948V160.404H1335.19ZM1345.92 167.017L1355.23 163.464L1360 177.14L1350.38 180.338L1356.38 188.335L1344.82 196.967L1338.84 188.601L1333.17 197L1321.41 188.355L1327.45 180.318L1318 177.123L1322.77 163.435L1331.8 166.97V157H1345.92V167.017Z" fill="white"/>
<path d="M1335.19 82.3188V93.5742L1324.81 89.6123L1322.33 96.5457L1332.98 100.057L1326.19 108.882L1332.34 113.294L1338.77 104.019L1345.56 113.294L1351.63 108.882L1344.83 100.057L1355.67 96.5457L1353.19 89.6123L1342.53 93.5742V82.3188H1335.19ZM1345.92 88.7664L1355.23 85.3026L1360 98.6366L1350.38 101.755L1356.38 109.552L1344.82 117.967L1338.84 109.811L1333.17 118L1321.41 109.571L1327.45 101.735L1318 98.6203L1322.77 85.2743L1331.8 88.721V79H1345.92V88.7664Z" fill="white"/>
<path d="M1335.19 239.319V250.574L1324.81 246.612L1322.33 253.546L1332.98 257.057L1326.19 265.882L1332.34 270.294L1338.77 261.019L1345.56 270.294L1351.63 265.882L1344.83 257.057L1355.67 253.546L1353.19 246.612L1342.53 250.574V239.319H1335.19ZM1345.92 245.766L1355.23 242.303L1360 255.637L1350.38 258.755L1356.38 266.552L1344.82 274.967L1338.84 266.811L1333.17 275L1321.41 266.571L1327.45 258.735L1318 255.62L1322.77 242.274L1331.8 245.721V236H1345.92V245.766Z" fill="white"/>
<path d="M1335.19 43.3188V54.5742L1324.81 50.6123L1322.33 57.5457L1332.98 61.0573L1326.19 69.8818L1332.34 74.2939L1338.77 65.0194L1345.56 74.2939L1351.63 69.8818L1344.83 61.0573L1355.67 57.5457L1353.19 50.6123L1342.53 54.5742V43.3188H1335.19ZM1345.92 49.7664L1355.23 46.3026L1360 59.6366L1350.38 62.7548L1356.38 70.5519L1344.82 78.9674L1338.84 70.8113L1333.17 79L1321.41 70.5713L1327.45 62.7349L1318 59.6203L1322.77 46.2743L1331.8 49.721V40H1345.92V49.7664Z" fill="white"/>
<path d="M1335.19 200.319V211.574L1324.81 207.612L1322.33 214.546L1332.98 218.057L1326.19 226.882L1332.34 231.294L1338.77 222.019L1345.56 231.294L1351.63 226.882L1344.83 218.057L1355.67 214.546L1353.19 207.612L1342.53 211.574V200.319H1335.19ZM1345.92 206.766L1355.23 203.303L1360 216.637L1350.38 219.755L1356.38 227.552L1344.82 235.967L1338.84 227.811L1333.17 236L1321.41 227.571L1327.45 219.735L1318 216.62L1322.77 203.274L1331.8 206.721V197H1345.92V206.766Z" fill="white"/>
<path d="M1335.19 121.319V132.574L1324.81 128.612L1322.33 135.546L1332.98 139.057L1326.19 147.882L1332.34 152.294L1338.77 143.019L1345.56 152.294L1351.63 147.882L1344.83 139.057L1355.67 135.546L1353.19 128.612L1342.53 132.574V121.319H1335.19ZM1345.92 127.766L1355.23 124.303L1360 137.637L1350.38 140.755L1356.38 148.552L1344.82 156.967L1338.84 148.811L1333.17 157L1321.41 148.571L1327.45 140.735L1318 137.62L1322.77 124.274L1331.8 127.721V118H1345.92V127.766Z" fill="white"/>
<path d="M1335.19 278.319V289.574L1324.81 285.612L1322.33 292.546L1332.98 296.057L1326.19 304.882L1332.34 309.294L1338.77 300.019L1345.56 309.294L1351.63 304.882L1344.83 296.057L1355.67 292.546L1353.19 285.612L1342.53 289.574V278.319H1335.19ZM1345.92 284.766L1355.23 281.303L1360 294.637L1350.38 297.755L1356.38 305.552L1344.82 313.967L1338.84 305.811L1333.17 314L1321.41 305.571L1327.45 297.735L1318 294.62L1322.77 281.274L1331.8 284.721V275H1345.92V284.766Z" fill="white"/>
</svg>
