<svg width="132" height="125" viewBox="0 0 132 125" fill="none" xmlns="http://www.w3.org/2000/svg">
<path d="M54.0122 10.6371V46.7122L21.3955 34.0137L13.6022 56.2362L47.0848 67.4913L25.7254 95.7749L45.0641 109.916L65.2693 80.1903L86.6286 109.916L105.679 95.7749L84.3195 67.4913L118.379 56.2362L110.586 34.0137L77.1035 46.7122V10.6371H54.0122ZM87.7389 31.3025L117.012 20.2007L132 62.9379L101.756 72.9321L120.629 97.9228L84.2952 124.896L65.5109 98.7541L47.6718 125L10.728 97.9849L29.6959 72.8683L0 62.8857L15.0012 20.1099L43.377 31.1571V0H87.7389V31.3025Z" fill="#222222"/>
</svg>
