<svg width="1392" height="138" viewBox="0 0 1392 138" fill="none" xmlns="http://www.w3.org/2000/svg">
<rect width="1392" height="137" fill="#EF340B"/>
<path d="M1389.92 105.235C1387.02 115.563 1380.73 123.499 1371.03 129.041C1361.46 134.583 1350.94 137.354 1339.48 137.354C1323.61 137.354 1310.44 132.882 1299.99 123.939C1289.54 114.997 1284.31 102.653 1284.31 86.9087C1284.31 71.6682 1289.35 59.1357 1299.42 49.3112C1309.63 39.4867 1322.54 34.5745 1338.15 34.5745C1354.53 34.5745 1367.56 39.6756 1377.26 49.878C1387.09 60.0803 1392 73.8094 1392 91.0652V93.8992H1320.21C1320.46 100.071 1322.22 104.857 1325.5 108.258C1328.9 111.659 1333.49 113.359 1339.29 113.359C1346.22 113.359 1351.44 110.651 1354.97 105.235H1389.92ZM1355.54 75.1949C1354.53 64.1109 1348.8 58.5689 1338.34 58.5689C1328.27 58.5689 1322.28 64.1109 1320.39 75.1949H1355.54Z" fill="#222222"/>
<path d="M1280.05 134.52H1243.78V37.0305H1280.05V134.52ZM1233.76 100.323C1233.76 111.029 1230.42 119.405 1223.75 125.451C1217.07 131.497 1207.19 134.52 1194.09 134.52H1138.54V37.0305H1174.81V67.4486H1195.03C1208.13 67.4486 1217.83 70.3456 1224.13 76.1395C1230.55 81.8075 1233.76 89.8686 1233.76 100.323ZM1184.07 111.848C1192.39 111.848 1196.54 108.258 1196.54 101.079C1196.54 93.8991 1192.39 90.3094 1184.07 90.3094H1174.81V111.848H1184.07Z" fill="#222222"/>
<path d="M1092.55 69.149V37.0305H1129.77V134.52H1092.55V97.2999H1065.15V134.52H1027.93V37.0305H1065.15V69.149H1092.55Z" fill="#222222"/>
<path d="M1018.8 37.0305V134.52H984.227V96.1663C973.52 99.945 963.507 101.834 954.186 101.834C931.766 101.834 920.556 88.8609 920.556 62.9142V37.0305H957.776V58.1909C957.776 64.7406 958.784 69.3379 960.799 71.983C962.94 74.5021 966.341 75.7616 971.001 75.7616C975.032 75.7616 978.559 74.754 981.581 72.7387V37.0305H1018.8Z" fill="#222222"/>
<path d="M877.208 37.0305H914.428V134.52H878.72V82.5632H878.153L849.813 134.52H812.593V37.0305H848.302V87.6644H848.868L877.208 37.0305Z" fill="#222222"/>
<path d="M730.219 37.0305H811.46V65.1814H767.439V134.52H730.219V37.0305Z" fill="#222222"/>
<path d="M671.294 34.197C687.039 34.197 699.823 38.9203 709.647 48.3669C719.472 57.8136 724.384 70.1571 724.384 85.3977C724.384 100.764 719.409 113.297 709.458 122.995C699.508 132.568 686.661 137.354 670.916 137.354C655.046 137.354 642.136 132.568 632.185 122.995C622.235 113.423 617.26 101.016 617.26 85.7755C617.26 70.535 622.235 58.1284 632.185 48.5559C642.262 38.9833 655.298 34.197 671.294 34.197ZM670.538 61.2143C659.958 61.2143 654.668 69.4014 654.668 85.7755C654.668 102.276 660.084 110.526 670.916 110.526C681.622 110.526 686.976 102.15 686.976 85.3977C686.976 69.2755 681.497 61.2143 670.538 61.2143Z" fill="#222222"/>
<path d="M612.181 134.52H575.717V65.1814H557.201C557.201 82.4372 556.194 95.7255 554.178 105.046C551.911 116.256 547.881 124.317 542.087 129.229C536.419 134.016 528.295 136.409 517.714 136.409C516.077 136.409 514.125 136.157 511.858 135.653C509.716 135.275 507.953 134.897 506.567 134.52L504.489 133.764V107.124C506.882 108.006 508.898 108.447 510.535 108.447C512.172 108.447 513.558 108.132 514.691 107.502C515.951 106.747 516.959 105.676 517.714 104.29C518.596 102.779 519.289 101.393 519.793 100.134C520.296 98.7484 520.611 96.985 520.737 94.8438C520.989 92.5766 521.178 90.8132 521.304 89.5537C521.43 88.2941 521.493 86.5938 521.493 84.4525C521.619 82.1853 521.682 80.7998 521.682 80.296C522.06 71.6051 522.249 57.1833 522.249 37.0305H612.181V134.52Z" fill="#222222"/>
<path d="M458.17 34.197C473.914 34.197 486.699 38.9203 496.523 48.3669C506.348 57.8136 511.26 70.1571 511.26 85.3977C511.26 100.764 506.285 113.297 496.334 122.995C486.384 132.568 473.536 137.354 457.792 137.354C441.922 137.354 429.011 132.568 419.061 122.995C409.11 113.423 404.135 101.016 404.135 85.7755C404.135 70.535 409.11 58.1284 419.061 48.5559C429.137 38.9833 442.174 34.197 458.17 34.197ZM457.414 61.2143C446.834 61.2143 441.544 69.4014 441.544 85.7755C441.544 102.276 446.96 110.526 457.792 110.526C468.498 110.526 473.851 102.15 473.851 85.3977C473.851 69.2755 468.372 61.2143 457.414 61.2143Z" fill="#222222"/>
<path d="M362.109 69.149V37.0305H399.329V134.52H362.109V97.2999H334.714V134.52H297.495V37.0305H334.714V69.149H362.109Z" fill="#222222"/>
<path d="M296.613 37.0305L266.195 83.13L300.77 134.52H259.772L252.592 122.806C250.577 119.531 248.373 114.808 245.98 108.636C243.209 115.06 240.815 119.909 238.8 123.184L232.187 134.52H191L225.197 83.13L194.59 37.0305H235.399L240.501 46.0993C243.146 51.1375 245.098 55.0421 246.357 57.8131C249.254 51.2634 251.333 46.855 252.592 44.5878L256.938 37.0305H296.613Z" fill="#222222"/>
<path d="M200.578 105.235C197.681 115.563 191.384 123.499 181.685 129.041C172.112 134.583 161.595 137.354 150.133 137.354C134.263 137.354 121.101 132.882 110.646 123.939C100.192 114.997 94.9651 102.653 94.9651 86.9087C94.9651 71.6682 100.003 59.1357 110.08 49.3112C120.282 39.4867 133.192 34.5745 148.811 34.5745C165.185 34.5745 178.221 39.6756 187.92 49.878C197.744 60.0803 202.656 73.8094 202.656 91.0652V93.8992H130.862C131.114 100.071 132.878 104.857 136.152 108.258C139.553 111.659 144.15 113.359 149.944 113.359C156.872 113.359 162.099 110.651 165.626 105.235H200.578ZM166.193 75.1949C165.185 64.1109 159.454 58.5689 149 58.5689C138.923 58.5689 132.94 64.1109 131.051 75.1949H166.193Z" fill="#222222"/>
<path d="M116.571 0V34.5746H78.7848V134.52H37.5975V34.5746H0V0H116.571Z" fill="#222222"/>
</svg>
