<svg width="200" height="200" viewBox="0 0 200 200" fill="none" xmlns="http://www.w3.org/2000/svg">
<circle cx="100" cy="100" r="100" fill="#EF340B"/>
<path d="M76.8773 65.886V109.114C76.8773 110.528 76.9446 112.178 77.0793 114.063C77.214 115.948 77.5506 117.901 78.0893 119.921C78.628 121.874 79.3686 123.826 80.3113 125.779C81.3213 127.664 82.668 129.381 84.3513 130.93C86.0346 132.411 88.0883 133.623 90.5123 134.566C93.0036 135.441 96 135.879 99.5013 135.879C103.945 135.879 107.649 135.273 110.611 134.061C113.641 132.782 116.065 130.997 117.883 128.708C119.769 126.351 121.115 123.523 121.923 120.224C122.731 116.925 123.135 113.221 123.135 109.114V65.886H127.579V109.114C127.579 113.423 127.108 117.43 126.165 121.133C125.29 124.836 123.775 128.068 121.62 130.829C119.466 133.59 116.57 135.778 112.934 137.394C109.366 138.943 104.888 139.717 99.5013 139.717C95.2593 139.717 91.6233 139.178 88.5933 138.101C85.5633 137.024 83.0383 135.643 81.0183 133.96C79.0656 132.209 77.517 130.223 76.3723 128.001C75.2276 125.779 74.3523 123.557 73.7463 121.335C73.1403 119.046 72.77 116.857 72.6353 114.77C72.5006 112.615 72.4333 110.73 72.4333 109.114V65.886H76.8773Z" fill="white"/>
</svg>
